<?xml version="1.0" standalone="no"?>
<!DOCTYPE svg PUBLIC "-//W3C//DTD SVG 20010904//EN"
 "http://www.w3.org/TR/2001/REC-SVG-20010904/DTD/svg10.dtd">
<svg version="1.0" xmlns="http://www.w3.org/2000/svg"
 width="2500.000000pt" height="2500.000000pt" viewBox="0 0 2500.000000 2500.000000"
 preserveAspectRatio="xMidYMid meet">
<metadata>
Created by potrace 1.14, written by Peter Selinger 2001-2017
</metadata>
<g transform="translate(0.000000,2500.000000) scale(0.100000,-0.100000)"
fill="#000000" stroke="none">
<path d="M14550 21310 c-21 -24 -48 -42 -67 -46 -18 -3 -33 -10 -33 -15 0 -5
-5 -9 -10 -9 -6 0 -26 -16 -46 -35 -19 -19 -39 -35 -44 -35 -5 0 -12 -9 -15
-20 -3 -11 -15 -20 -26 -20 -10 0 -19 -4 -19 -10 0 -5 -9 -10 -20 -10 -11 0
-20 -4 -20 -10 0 -5 -7 -10 -15 -10 -12 0 -23 -9 -72 -62 -24 -25 -42 -38 -57
-38 -8 0 -18 -9 -21 -20 -3 -11 -15 -20 -26 -20 -10 0 -19 -4 -19 -10 0 -5 -8
-10 -19 -10 -10 0 -27 -11 -37 -25 -10 -14 -27 -25 -36 -25 -10 0 -18 -4 -18
-10 0 -5 -5 -10 -11 -10 -6 0 -17 -7 -25 -15 -9 -8 -24 -15 -35 -15 -10 0 -19
-4 -19 -10 0 -5 -10 -10 -23 -10 -12 0 -29 -9 -37 -20 -8 -11 -18 -20 -23 -20
-5 0 -15 -6 -22 -12 -35 -32 -45 -38 -60 -38 -8 0 -15 -4 -15 -10 0 -5 -9 -10
-21 -10 -11 0 -27 -7 -35 -15 -9 -9 -33 -15 -58 -15 -30 0 -46 -5 -56 -20 -8
-11 -20 -20 -27 -20 -7 0 -13 -4 -13 -10 0 -5 -9 -10 -21 -10 -11 0 -27 -7
-35 -15 -9 -8 -24 -15 -35 -15 -10 0 -19 -4 -19 -10 0 -5 -24 -10 -54 -10 -46
0 -56 -3 -61 -20 -3 -11 -15 -20 -25 -20 -10 0 -21 -6 -24 -12 -5 -10 -7 -10
-12 0 -3 6 -10 12 -16 12 -27 0 -38 31 -38 104 0 44 -4 76 -10 76 -15 0 -13
157 3 164 10 5 10 7 0 12 -9 4 -13 29 -13 75 0 39 -4 69 -10 69 -5 0 -10 26
-10 58 0 96 -4 102 -65 102 -34 0 -59 -5 -69 -15 -8 -8 -24 -15 -35 -15 -12 0
-21 -4 -21 -10 0 -5 -8 -10 -18 -10 -10 0 -24 -9 -32 -20 -8 -11 -29 -23 -47
-26 -18 -3 -33 -10 -33 -15 0 -5 -9 -9 -20 -9 -11 0 -20 -4 -20 -10 0 -5 -7
-10 -15 -10 -8 0 -15 -4 -15 -9 0 -5 -16 -12 -35 -15 -19 -4 -35 -11 -35 -16
0 -6 -9 -10 -20 -10 -11 0 -20 -4 -20 -10 0 -5 -11 -10 -25 -10 -14 0 -25 -4
-25 -10 0 -5 -9 -10 -20 -10 -11 0 -20 -4 -20 -10 0 -5 -16 -12 -35 -16 -19
-3 -35 -10 -35 -15 0 -5 -9 -9 -19 -9 -11 0 -23 -9 -26 -20 -3 -11 -15 -20
-26 -20 -10 0 -19 -4 -19 -10 0 -5 -11 -10 -24 -10 -14 0 -31 -7 -40 -15 -8
-8 -21 -15 -30 -15 -8 0 -18 -9 -21 -20 -4 -14 -15 -20 -36 -20 -16 0 -29 -4
-29 -10 0 -6 -26 -10 -59 -10 -40 0 -65 -5 -75 -15 -8 -8 -22 -15 -30 -15 -9
0 -16 -4 -16 -10 0 -5 -7 -10 -15 -10 -8 0 -15 -4 -15 -10 0 -5 -9 -10 -19
-10 -11 0 -26 -7 -35 -15 -9 -9 -34 -15 -66 -15 -44 0 -55 -4 -85 -35 -33 -32
-38 -34 -83 -28 -43 5 -52 2 -75 -21 -14 -14 -29 -26 -33 -26 -4 0 -15 -9 -25
-21 -15 -17 -31 -21 -88 -23 -64 -1 -71 -4 -99 -34 -28 -30 -72 -44 -72 -22 0
24 -53 8 -84 -25 -31 -33 -76 -48 -76 -25 0 6 -13 10 -28 10 -25 0 -37 -9 -62
-50 -7 -11 -24 -14 -69 -12 -52 3 -62 0 -85 -23 -14 -14 -26 -30 -26 -35 0 -6
-18 -10 -41 -10 -22 0 -47 -6 -54 -12 -44 -39 -49 -42 -53 -30 -5 17 -60 15
-78 -2 -8 -8 -14 -22 -14 -30 0 -12 -10 -16 -40 -16 -31 0 -47 -6 -64 -25 -13
-14 -31 -25 -40 -25 -9 0 -16 -4 -16 -10 0 -5 -5 -10 -11 -10 -7 0 -19 -8 -28
-19 -9 -10 -35 -22 -59 -26 -23 -4 -42 -11 -42 -16 0 -5 -9 -9 -20 -9 -11 0
-20 -4 -20 -10 0 -5 -10 -10 -23 -10 -12 0 -29 -9 -37 -20 -8 -11 -20 -20 -27
-20 -7 0 -23 -11 -37 -25 -18 -18 -36 -25 -62 -25 -29 0 -44 -7 -70 -35 -18
-19 -40 -35 -48 -35 -9 0 -16 -4 -16 -10 0 -5 -7 -10 -15 -10 -8 0 -15 -4 -15
-10 0 -5 -9 -10 -20 -10 -10 0 -30 -11 -44 -25 -14 -14 -30 -25 -36 -25 -5 0
-10 -4 -10 -10 0 -5 -9 -10 -20 -10 -11 0 -20 -4 -20 -9 0 -5 -10 -13 -22 -17
-13 -4 -35 -20 -49 -35 -15 -16 -30 -29 -33 -29 -7 0 -24 -13 -61 -47 -13 -13
-27 -23 -30 -23 -4 0 -13 -7 -21 -15 -9 -8 -24 -15 -35 -15 -10 0 -19 -4 -19
-10 0 -5 -11 -20 -25 -34 -14 -14 -25 -30 -25 -36 0 -5 -9 -10 -20 -10 -11 0
-41 -20 -66 -45 -24 -25 -49 -45 -55 -45 -6 0 -24 -15 -40 -32 -16 -18 -33
-37 -38 -42 -11 -11 -76 -76 -87 -87 -5 -5 -24 -22 -41 -38 -18 -16 -33 -34
-33 -40 0 -6 -16 -26 -35 -45 -19 -20 -35 -38 -35 -41 0 -6 -11 -20 -37 -50
-7 -7 -13 -20 -13 -29 0 -8 -9 -17 -19 -21 -13 -4 -22 -19 -26 -45 -4 -22 -10
-40 -14 -40 -15 0 -51 -38 -51 -54 0 -9 -4 -16 -10 -16 -5 0 -10 -9 -10 -19 0
-35 -12 -51 -37 -51 -41 0 -50 20 -58 123 -6 82 -10 97 -26 102 -16 5 -19 16
-19 61 0 30 -4 54 -10 54 -5 0 -10 14 -10 30 0 17 -4 30 -10 30 -5 0 -12 27
-16 60 -4 33 -11 60 -15 60 -5 0 -9 11 -9 25 0 14 -4 25 -10 25 -5 0 -10 9
-10 20 0 13 -7 20 -19 20 -11 0 -22 6 -24 13 -4 10 -6 10 -6 0 -1 -7 -8 -13
-17 -13 -17 0 -44 -23 -44 -38 0 -14 -76 -92 -89 -92 -6 0 -11 -7 -11 -15 0
-8 -4 -15 -10 -15 -5 0 -10 -9 -10 -19 0 -11 -9 -23 -20 -26 -11 -3 -20 -13
-20 -21 0 -9 -6 -22 -12 -29 -30 -33 -38 -45 -38 -55 0 -5 -4 -10 -10 -10 -5
0 -10 -8 -10 -18 0 -10 -9 -24 -20 -32 -11 -8 -20 -20 -20 -27 0 -7 -11 -23
-25 -37 -14 -14 -25 -30 -25 -36 0 -5 -4 -10 -10 -10 -5 0 -10 -9 -10 -19 0
-11 -7 -26 -15 -35 -8 -8 -15 -18 -15 -21 0 -4 -13 -19 -29 -34 -18 -17 -31
-42 -35 -67 -4 -23 -16 -46 -28 -55 -45 -32 -57 -47 -64 -84 -5 -29 -20 -52
-51 -81 -23 -23 -43 -48 -43 -57 0 -10 -4 -17 -10 -17 -5 0 -10 -9 -10 -21 0
-11 -20 -40 -45 -65 -30 -29 -45 -52 -45 -69 0 -14 -4 -25 -10 -25 -5 0 -10
-5 -10 -10 0 -12 -11 -26 -57 -75 -18 -19 -33 -43 -33 -55 0 -11 -4 -20 -9
-20 -5 0 -12 -11 -15 -25 -4 -14 -11 -25 -16 -25 -6 0 -10 -13 -10 -30 0 -16
-4 -30 -10 -30 -5 0 -10 -6 -10 -13 0 -7 -9 -19 -20 -27 -11 -8 -20 -24 -20
-36 0 -13 -7 -29 -15 -38 -8 -8 -15 -22 -15 -30 0 -9 -4 -16 -10 -16 -5 0 -10
-11 -10 -25 0 -14 -4 -25 -10 -25 -5 0 -10 -16 -10 -35 0 -19 -4 -35 -9 -35
-6 0 -13 -20 -17 -45 -3 -25 -10 -45 -15 -45 -5 0 -9 -16 -9 -35 0 -19 -4 -35
-10 -35 -5 0 -10 -9 -10 -19 0 -11 -4 -21 -10 -23 -5 -1 -13 -42 -16 -90 -4
-49 -11 -88 -15 -88 -5 0 -9 -7 -9 -15 0 -8 -4 -15 -10 -15 -6 0 -10 -28 -10
-65 0 -37 -4 -65 -10 -65 -6 0 -10 -33 -10 -79 0 -53 -4 -81 -12 -83 -9 -3
-13 -58 -16 -191 -3 -103 -8 -187 -13 -187 -5 0 -9 -47 -9 -105 0 -63 -4 -105
-10 -105 -7 0 -10 -172 -10 -495 0 -323 3 -495 10 -495 6 0 10 -52 10 -135 0
-74 4 -135 8 -135 5 0 12 -132 16 -292 4 -169 11 -294 17 -296 5 -2 9 -10 9
-18 0 -8 5 -14 10 -14 6 0 10 -48 10 -125 0 -77 4 -125 10 -125 6 0 10 -36 10
-89 0 -58 4 -91 11 -93 8 -3 13 -77 17 -236 3 -128 9 -232 13 -232 5 0 9 -61
9 -135 0 -83 4 -135 10 -135 6 0 10 -22 10 -50 0 -27 4 -50 8 -50 5 0 12 -73
16 -162 4 -90 11 -164 16 -166 6 -2 10 -15 10 -28 0 -13 5 -24 10 -24 6 0 10
-23 10 -51 0 -38 5 -56 19 -68 12 -11 20 -37 25 -83 4 -38 12 -68 17 -68 5 0
9 -7 9 -15 0 -8 5 -15 10 -15 6 0 10 -55 10 -145 0 -90 -4 -145 -10 -145 -5 0
-10 -25 -10 -55 0 -30 -4 -55 -8 -55 -5 0 -12 -55 -16 -122 -3 -68 -11 -124
-16 -126 -6 -2 -10 -46 -10 -103 0 -59 -4 -99 -10 -99 -5 0 -10 -16 -10 -35 0
-28 -4 -35 -19 -35 -14 0 -21 10 -25 35 -4 19 -11 35 -16 35 -6 0 -10 14 -10
30 0 17 -4 30 -10 30 -5 0 -10 11 -10 25 0 14 -4 25 -9 25 -4 0 -11 19 -14 42
-3 24 -11 44 -16 46 -6 2 -11 12 -11 23 0 10 -4 19 -10 19 -5 0 -10 6 -10 13
0 7 -9 19 -19 27 -11 7 -23 32 -27 54 -3 23 -15 48 -25 57 -11 9 -19 19 -19
23 0 4 -10 18 -22 31 -34 36 -48 53 -48 60 0 3 -16 21 -35 41 -19 19 -35 39
-35 44 0 5 -12 13 -27 16 -16 4 -35 15 -44 26 -9 10 -21 18 -27 18 -6 0 -12 4
-14 9 -1 5 -18 12 -35 16 -26 5 -33 3 -33 -9 0 -9 -4 -16 -10 -16 -5 0 -10
-25 -10 -55 0 -30 5 -55 10 -55 6 0 10 -7 10 -15 0 -8 5 -15 10 -15 6 0 10 -9
10 -20 0 -17 16 -37 62 -76 7 -6 20 -21 28 -33 8 -11 21 -21 29 -21 7 0 24
-11 37 -25 13 -14 28 -25 34 -25 14 0 60 -46 60 -59 0 -6 11 -21 25 -35 14
-14 25 -28 25 -31 0 -3 11 -17 25 -31 26 -26 36 -94 14 -94 -16 0 -39 -26 -39
-44 0 -11 10 -16 33 -16 64 0 107 -12 107 -29 0 -9 9 -23 20 -31 11 -8 20 -20
20 -27 0 -7 7 -13 15 -13 12 0 15 -14 15 -65 0 -37 4 -65 10 -65 6 0 10 -20
10 -45 0 -25 5 -45 10 -45 6 0 10 -82 10 -225 0 -143 -4 -225 -10 -225 -6 0
-10 -53 -10 -140 0 -87 4 -140 10 -140 6 0 10 -43 10 -110 0 -67 4 -110 10
-110 6 0 10 -33 10 -80 0 -44 4 -80 9 -80 5 0 13 -45 16 -100 4 -55 11 -100
16 -100 5 0 9 -11 9 -25 0 -14 5 -25 10 -25 6 0 10 -40 10 -99 0 -91 -2 -100
-20 -106 -11 -3 -20 -11 -20 -16 0 -5 -11 -9 -25 -9 -14 0 -25 -4 -25 -10 0
-15 -39 -12 -56 4 -16 16 -19 76 -4 76 6 0 10 16 10 35 0 43 -22 47 -56 10
-13 -14 -34 -25 -49 -25 -14 0 -25 -4 -25 -10 0 -5 -11 -10 -25 -10 -14 0 -25
-4 -25 -10 0 -5 -13 -10 -29 -10 -20 0 -32 -6 -36 -19 -8 -26 4 -51 26 -51 10
0 19 -4 19 -10 0 -5 11 -10 25 -10 14 0 25 -4 25 -10 0 -5 9 -10 19 -10 11 0
26 -7 35 -15 16 -16 96 -21 96 -6 0 5 26 11 57 13 31 3 59 10 61 16 5 17 29
15 52 -5 14 -12 20 -30 20 -60 0 -24 5 -43 10 -43 6 0 10 -37 10 -90 0 -53 4
-90 10 -90 6 0 10 -9 10 -20 0 -11 5 -20 10 -20 6 0 10 -20 10 -45 0 -25 4
-45 9 -45 4 0 11 -41 13 -92 4 -54 10 -94 17 -96 7 -2 11 -32 11 -78 0 -43 4
-74 10 -74 6 0 10 -15 10 -34 0 -19 5 -36 10 -38 6 -2 13 -33 17 -71 3 -37 10
-67 14 -67 5 0 9 -25 9 -55 0 -30 5 -55 10 -55 6 0 10 -9 10 -20 0 -11 5 -20
10 -20 6 0 10 -20 10 -45 0 -25 4 -45 9 -45 4 0 11 -26 14 -57 3 -32 11 -59
17 -61 5 -2 10 -24 10 -48 0 -24 5 -44 10 -44 6 0 10 -20 10 -45 0 -25 5 -45
10 -45 6 0 10 -9 10 -20 0 -11 4 -20 9 -20 5 0 12 -31 16 -70 4 -38 11 -70 16
-70 5 0 9 -11 9 -25 0 -14 5 -25 10 -25 6 0 10 -13 10 -30 0 -16 5 -30 10 -30
6 0 10 -20 10 -44 0 -30 5 -46 15 -50 11 -4 15 -21 15 -61 0 -30 5 -55 10 -55
6 0 10 -9 10 -19 0 -11 9 -23 20 -26 14 -4 20 -15 20 -36 0 -16 4 -29 9 -29 5
0 13 -25 16 -55 4 -30 11 -55 16 -55 5 0 9 -11 9 -25 0 -14 5 -25 10 -25 6 0
10 -9 10 -19 0 -10 7 -21 15 -25 9 -3 15 -18 15 -35 0 -21 6 -32 20 -36 11 -3
20 -15 20 -26 0 -10 5 -19 10 -19 6 0 10 -9 10 -21 0 -11 7 -27 15 -35 8 -9
15 -24 15 -35 0 -10 5 -19 10 -19 6 0 10 -10 10 -23 0 -12 9 -29 20 -37 11 -8
20 -22 20 -32 0 -10 5 -18 10 -18 6 0 10 -11 10 -24 0 -14 7 -31 15 -40 8 -8
15 -17 15 -21 0 -3 17 -22 37 -43 34 -34 42 -37 98 -38 33 -1 65 -2 72 -3 6 0
15 -21 19 -46 3 -25 10 -45 15 -45 5 0 9 -9 9 -20 0 -11 5 -20 10 -20 6 0 10
-20 10 -45 0 -25 5 -45 10 -45 6 0 10 -9 10 -20 0 -11 4 -20 10 -20 5 0 12
-16 16 -35 3 -19 10 -35 15 -35 5 0 9 -11 9 -25 0 -14 5 -25 10 -25 6 0 10
-11 10 -25 0 -14 5 -25 10 -25 6 0 10 -13 10 -30 0 -16 4 -30 10 -30 5 0 12
-16 16 -35 3 -19 10 -35 15 -35 5 0 9 -9 9 -20 0 -11 5 -20 10 -20 6 0 10 -7
10 -15 0 -8 5 -15 10 -15 6 0 10 -9 10 -20 0 -11 4 -20 10 -20 5 0 12 -16 16
-35 3 -19 10 -35 15 -35 5 0 9 -7 9 -15 0 -8 5 -15 10 -15 6 0 10 -9 10 -20 0
-11 4 -20 9 -20 5 0 11 -14 15 -31 3 -17 19 -43 36 -59 16 -15 30 -33 30 -39
0 -6 4 -11 10 -11 5 0 13 -12 16 -27 7 -27 20 -43 63 -73 12 -8 21 -20 21 -28
0 -7 37 -51 83 -97 45 -46 88 -91 95 -99 16 -20 48 -20 64 0 32 38 79 84 87
84 5 0 11 14 15 30 3 18 12 30 21 30 21 0 45 -24 45 -44 0 -9 4 -16 9 -16 5 0
12 -11 15 -25 4 -14 11 -25 16 -25 6 0 10 -9 10 -20 0 -11 5 -20 10 -20 6 0
10 -6 10 -13 0 -7 9 -19 20 -27 11 -8 20 -22 20 -31 0 -9 11 -25 25 -35 14
-10 25 -27 25 -36 0 -10 4 -18 9 -18 5 0 13 -10 17 -22 4 -13 21 -35 38 -50
17 -15 34 -31 38 -35 39 -41 58 -63 58 -68 0 -8 38 -49 112 -122 13 -13 33
-33 45 -45 12 -13 27 -27 32 -33 48 -48 64 -63 83 -81 13 -12 30 -31 38 -43 8
-11 22 -21 32 -21 9 0 23 -7 30 -16 41 -49 103 -104 118 -104 5 0 10 -4 10
-10 0 -5 23 -10 50 -10 43 0 55 -4 80 -30 17 -17 30 -36 30 -43 0 -7 9 -19 20
-27 11 -8 20 -18 20 -23 0 -5 7 -15 15 -23 8 -9 15 -24 15 -34 0 -10 9 -22 20
-25 11 -3 20 -13 20 -22 0 -9 8 -23 19 -32 10 -9 21 -26 25 -38 4 -13 12 -23
17 -23 5 0 9 -8 9 -18 0 -10 9 -24 20 -32 11 -8 20 -18 20 -23 0 -5 7 -15 15
-23 8 -9 15 -24 15 -34 0 -10 9 -22 20 -25 11 -3 20 -15 20 -26 0 -10 5 -19
11 -19 12 0 39 -25 39 -37 0 -5 9 -15 20 -23 11 -8 20 -20 20 -27 0 -7 18 -30
40 -53 51 -52 97 -56 141 -9 16 17 29 42 29 55 0 13 5 24 10 24 6 0 10 19 10
41 0 29 6 47 20 59 14 12 22 36 27 81 4 43 12 69 25 80 10 9 18 20 18 23 0 9
26 36 35 36 4 0 12 -6 19 -13 8 -6 23 -19 35 -27 13 -9 21 -25 21 -42 0 -15 4
-28 9 -28 5 0 12 -11 15 -25 4 -14 11 -25 16 -25 6 0 10 -11 10 -25 0 -14 5
-25 10 -25 6 0 10 -8 10 -18 0 -10 9 -24 20 -32 11 -8 20 -20 20 -27 0 -7 11
-23 25 -37 14 -14 25 -28 25 -31 0 -3 11 -17 25 -31 14 -14 25 -34 25 -44 0
-11 4 -20 8 -20 17 0 49 -36 55 -62 4 -15 16 -30 27 -33 11 -3 20 -13 20 -21
0 -9 16 -30 35 -48 19 -19 35 -40 35 -47 0 -8 10 -21 21 -29 12 -8 27 -21 33
-28 37 -43 101 -102 112 -102 3 0 18 -13 33 -29 14 -15 36 -31 49 -35 13 -4
22 -15 22 -27 0 -17 7 -19 70 -19 63 0 70 2 70 20 0 13 7 20 19 20 11 0 26 7
35 15 8 8 19 15 25 15 6 0 11 5 11 10 0 6 7 10 15 10 9 0 27 11 41 25 14 14
30 25 35 25 6 0 24 15 40 33 16 17 33 36 38 41 7 7 37 37 87 87 5 4 46 45 92
89 45 44 82 85 82 91 0 6 33 43 74 83 61 60 75 80 81 115 4 22 10 41 15 41 19
0 68 58 75 88 5 26 12 32 32 32 31 0 52 -20 59 -59 4 -17 10 -31 15 -31 5 0 9
-31 9 -70 0 -40 4 -70 10 -70 6 0 10 -9 10 -20 0 -11 5 -20 10 -20 6 0 10 -20
10 -45 0 -25 4 -45 9 -45 5 0 13 -15 17 -32 14 -68 91 -92 136 -43 57 61 68
75 68 80 0 8 37 48 104 111 20 19 36 39 36 44 0 5 9 12 20 15 11 3 20 15 20
26 0 10 4 19 9 19 5 0 13 10 17 22 4 13 20 35 35 49 16 15 29 32 29 38 0 6 5
11 10 11 16 0 60 47 60 64 0 8 9 18 20 21 12 4 23 18 26 34 3 15 15 34 26 42
12 8 31 24 44 37 15 14 35 22 59 22 26 0 43 7 59 25 13 14 31 25 41 25 9 0 30
14 45 30 15 17 37 30 49 30 11 0 31 11 45 25 14 14 32 25 40 25 8 0 18 9 21
20 3 11 18 23 33 27 26 6 62 38 62 55 0 4 9 8 20 8 11 0 20 5 20 10 0 6 7 10
15 10 8 0 35 20 59 45 25 25 50 45 55 45 14 0 171 158 171 171 0 6 17 27 39
48 21 20 41 47 45 59 4 12 12 22 17 22 5 0 9 9 9 19 0 11 9 23 20 26 11 3 20
10 20 15 0 5 12 21 26 35 36 36 68 30 72 -12 2 -18 7 -33 13 -33 5 0 9 -5 9
-11 0 -16 26 -39 44 -39 9 0 16 -4 16 -10 0 -5 7 -10 15 -10 8 0 15 -4 15 -10
0 -5 9 -10 20 -10 11 0 20 5 20 10 0 6 6 10 13 10 7 0 19 9 27 20 8 11 20 20
27 20 7 0 76 63 153 140 100 99 142 148 146 170 4 16 10 30 15 30 5 0 9 5 9
10 0 6 10 22 23 35 37 40 47 54 47 65 0 5 5 10 10 10 6 0 10 9 10 20 0 11 5
20 10 20 6 0 10 5 10 10 0 11 10 25 48 65 12 13 22 29 22 35 0 5 5 10 10 10 6
0 10 9 10 20 0 11 4 20 9 20 5 0 12 16 15 35 4 19 11 35 16 35 6 0 10 13 10
29 0 21 6 32 20 36 11 3 20 15 20 25 0 10 5 20 11 22 6 2 14 28 17 58 4 43 11
60 34 81 17 17 28 37 28 54 0 27 20 55 39 55 6 0 11 5 11 10 0 6 9 10 20 10
11 0 20 4 20 9 0 4 20 11 44 13 35 4 52 14 95 56 28 27 51 56 51 64 0 7 9 20
20 28 11 8 20 19 20 25 0 6 9 17 20 25 11 8 20 23 20 33 0 9 7 20 15 23 8 4
15 15 15 25 0 10 5 19 10 19 6 0 10 9 10 20 0 22 6 31 58 85 17 19 32 43 32
55 0 11 4 20 9 20 5 0 12 11 15 25 4 14 11 25 16 25 6 0 10 14 10 30 0 17 5
30 10 30 6 0 10 5 10 11 0 7 8 19 19 28 10 9 22 34 25 57 4 22 16 47 27 54 10
8 19 25 19 37 0 13 5 23 10 23 6 0 10 7 10 16 0 8 7 22 15 30 8 9 15 26 15 40
0 13 5 24 10 24 6 0 10 7 10 15 0 8 5 15 10 15 6 0 10 9 10 20 0 11 5 20 10
20 6 0 10 9 10 19 0 11 5 21 11 23 5 2 13 22 16 45 4 30 11 44 24 48 14 5 19
16 19 46 0 21 4 39 9 39 5 0 11 17 14 38 4 21 15 44 27 52 12 8 20 26 20 42 0
15 5 28 10 28 6 0 10 7 10 15 0 8 4 15 9 15 5 0 12 29 16 65 3 36 11 65 16 65
5 0 9 6 9 13 0 7 9 19 20 27 11 8 20 26 20 41 0 15 5 29 11 31 6 2 13 25 16
51 3 26 10 47 14 47 5 0 9 14 9 30 0 17 5 30 10 30 6 0 10 5 10 11 0 7 8 19
19 28 12 11 21 37 26 79 4 34 11 62 16 62 5 0 9 7 9 15 0 8 5 15 10 15 6 0 10
16 10 35 0 19 4 35 9 35 4 0 11 19 14 42 3 24 11 44 16 46 6 2 11 19 11 38 0
19 5 34 10 34 6 0 10 18 10 40 0 22 5 40 10 40 6 0 10 11 10 25 0 14 4 25 9
25 5 0 13 26 17 57 5 45 13 63 40 90 18 18 36 33 40 33 3 0 19 -13 34 -30 27
-29 30 -30 127 -30 87 0 100 2 113 20 8 12 26 20 42 20 17 0 29 6 33 19 11 34
-4 51 -46 51 -21 0 -39 5 -39 10 0 6 -16 10 -35 10 -33 0 -35 -2 -35 -35 0
-30 -3 -35 -24 -35 -13 0 -27 -6 -30 -12 -5 -10 -7 -10 -12 0 -3 6 -15 12 -26
12 -10 0 -26 7 -34 15 -9 8 -24 15 -35 15 -11 0 -27 6 -35 14 -15 16 -19 46
-5 46 4 0 11 39 14 87 4 48 11 89 17 91 5 2 10 15 10 28 0 13 5 24 10 24 6 0
10 11 10 25 0 14 5 25 10 25 6 0 10 13 10 29 0 16 5 31 11 33 6 2 14 27 17 56
2 29 8 52 13 52 5 0 9 11 9 25 0 14 5 25 10 25 6 0 10 20 10 45 0 25 5 45 10
45 6 0 10 15 10 34 0 19 4 36 10 38 5 2 13 31 16 66 4 34 11 62 15 62 5 0 9
23 9 50 0 28 5 50 10 50 6 0 10 9 10 20 0 11 5 20 10 20 6 0 10 20 10 45 0 25
-4 45 -10 45 -6 0 -10 40 -10 101 0 76 4 104 15 115 12 12 15 41 15 125 0 66
4 109 10 109 6 0 10 11 10 25 0 14 5 25 10 25 6 0 10 9 10 20 0 11 5 20 10 20
6 0 10 11 10 25 0 14 4 25 10 25 5 0 12 11 16 25 3 14 10 25 15 25 5 0 9 13 9
29 0 21 6 32 20 36 14 4 20 15 20 36 0 16 5 29 10 29 6 0 10 7 10 15 0 12 9
13 48 8 26 -3 49 -10 50 -15 2 -4 12 -8 23 -8 14 0 19 7 19 25 0 14 -4 25 -10
25 -5 0 -10 13 -10 29 0 20 6 32 19 36 10 3 21 19 25 35 4 21 11 30 26 30 11
0 20 7 20 15 0 8 9 15 19 15 11 0 23 9 26 20 3 11 15 20 26 20 10 0 19 4 19 9
0 5 10 13 23 17 12 4 29 15 38 25 9 11 28 19 42 19 17 0 28 7 32 20 3 11 15
20 25 20 20 0 70 44 70 60 0 6 7 10 16 10 42 0 57 47 48 150 -7 80 -7 80 -35
80 -16 0 -29 -4 -29 -9 0 -5 -20 -12 -44 -15 -32 -5 -47 -13 -51 -27 -4 -10
-14 -19 -23 -19 -10 0 -24 -9 -32 -20 -8 -11 -20 -20 -27 -20 -15 0 -193 -176
-193 -191 0 -6 -13 -24 -30 -39 -16 -15 -30 -33 -30 -39 0 -5 -11 -21 -25 -35
-14 -14 -25 -30 -25 -36 0 -5 -4 -10 -10 -10 -5 0 -10 -9 -10 -20 0 -11 -4
-20 -10 -20 -5 0 -12 -11 -16 -25 -3 -14 -10 -25 -15 -25 -5 0 -9 -13 -9 -28
0 -17 -8 -33 -21 -42 -12 -8 -28 -21 -36 -29 -13 -13 -14 28 -8 340 4 195 12
355 16 357 5 2 9 24 9 48 0 24 5 44 10 44 6 0 10 9 10 20 0 11 -4 20 -10 20
-5 0 -10 16 -10 35 0 19 5 35 10 35 6 0 10 9 10 20 0 11 5 20 10 20 6 0 10 7
10 15 0 8 4 15 9 15 5 0 12 16 15 35 4 19 11 35 16 35 6 0 10 9 10 20 0 11 5
20 10 20 6 0 10 10 10 21 0 12 8 29 19 38 11 10 21 37 26 69 4 28 11 52 16 52
5 0 9 11 9 25 0 14 5 25 10 25 6 0 10 9 10 20 0 11 4 20 9 20 5 0 11 26 13 57
3 31 10 59 16 61 7 2 12 12 12 23 0 10 5 19 10 19 6 0 10 16 10 35 0 19 5 35
10 35 6 0 10 24 10 54 0 30 5 56 10 58 6 2 13 27 17 56 3 28 10 52 14 52 5 0
9 27 9 60 0 33 4 60 10 60 6 0 10 14 10 30 0 17 5 30 10 30 6 0 10 20 10 45 0
25 4 45 9 45 4 0 11 30 14 67 4 38 11 69 17 71 5 2 10 30 10 63 0 33 4 59 10
59 6 0 10 14 10 30 0 17 5 30 10 30 6 0 10 26 10 59 0 33 4 61 10 63 5 2 12
36 16 76 4 39 11 72 15 72 5 0 9 27 9 60 0 33 4 60 10 60 6 0 10 9 10 20 0 11
5 20 10 20 6 0 10 25 10 55 0 30 4 55 8 55 5 0 12 46 15 102 4 57 11 104 17
106 5 2 10 28 10 58 0 30 5 54 10 54 6 0 10 20 10 44 0 24 5 46 11 48 6 2 13
51 16 116 3 61 10 112 14 112 5 0 9 20 9 45 0 25 5 45 10 45 6 0 10 27 10 60
0 33 4 60 10 60 6 0 10 32 10 75 0 41 4 75 9 75 5 0 12 68 16 150 4 83 11 150
16 150 5 0 9 29 9 65 0 37 4 65 10 65 6 0 10 51 10 134 0 98 3 136 13 139 10
4 10 6 0 6 -10 1 -13 51 -13 216 0 137 -4 215 -10 215 -5 0 -10 25 -10 55 0
30 -4 55 -9 55 -5 0 -12 50 -16 110 -4 61 -11 110 -16 110 -5 0 -9 11 -9 25 0
14 -4 25 -10 25 -5 0 -10 11 -10 25 0 14 -4 25 -10 25 -5 0 -10 20 -10 44 0
24 -5 46 -11 48 -6 2 -13 32 -16 66 -3 34 -10 62 -14 62 -5 0 -9 20 -9 45 0
25 -4 45 -10 45 -5 0 -10 6 -10 14 0 8 -5 16 -11 18 -6 2 -13 32 -16 66 -3 34
-10 62 -14 62 -5 0 -9 7 -9 15 0 8 -4 15 -10 15 -5 0 -10 9 -10 20 0 11 -4 20
-10 20 -5 0 -10 20 -10 45 0 25 -4 45 -9 45 -5 0 -12 16 -15 35 -4 19 -11 35
-16 35 -6 0 -10 9 -10 20 0 11 -4 20 -10 20 -5 0 -10 7 -10 15 0 8 -4 15 -10
15 -5 0 -10 14 -10 30 0 17 -4 30 -9 30 -4 0 -11 21 -14 47 -3 26 -10 49 -16
51 -6 2 -11 12 -11 23 0 10 -4 19 -10 19 -5 0 -10 11 -10 25 0 14 -4 25 -10
25 -5 0 -10 9 -10 20 0 11 -4 20 -9 20 -5 0 -12 24 -16 52 -5 32 -15 59 -26
69 -11 9 -19 26 -19 38 0 11 -4 21 -10 21 -5 0 -10 5 -10 11 0 6 -7 17 -15 25
-8 9 -15 29 -15 45 0 16 -4 29 -10 29 -5 0 -10 5 -10 11 0 7 -8 19 -18 28 -11
9 -22 37 -26 66 -3 28 -11 52 -16 53 -6 2 -10 10 -10 18 0 8 -4 14 -10 14 -5
0 -10 18 -10 40 0 22 -4 40 -10 40 -5 0 -10 5 -10 11 0 6 -7 17 -15 25 -8 9
-15 25 -15 36 0 11 -13 33 -30 48 -16 15 -30 36 -30 45 0 9 -7 23 -15 31 -8 9
-15 24 -15 35 0 10 -4 19 -10 19 -5 0 -10 10 -10 23 0 12 -9 29 -20 37 -11 8
-20 20 -20 27 0 7 -4 13 -10 13 -5 0 -10 13 -10 29 0 18 -9 35 -25 47 -14 10
-25 25 -25 32 0 7 -7 20 -15 28 -8 9 -15 26 -15 40 0 13 -4 24 -10 24 -5 0
-10 9 -10 20 0 11 -4 20 -10 20 -5 0 -10 6 -10 13 0 7 -9 19 -20 27 -11 8 -20
23 -20 33 0 9 -7 20 -15 23 -8 4 -15 15 -15 25 0 10 -4 19 -10 19 -5 0 -10 9
-10 20 0 12 -11 32 -24 45 -13 13 -27 30 -30 37 -5 10 -7 10 -12 1 -3 -7 -14
-13 -25 -13 -13 0 -19 -7 -19 -24 0 -13 -5 -26 -11 -28 -6 -2 -13 -62 -16
-156 -3 -83 -10 -152 -15 -152 -4 0 -8 -45 -8 -100 0 -60 -4 -100 -10 -100 -5
0 -10 -16 -10 -35 0 -19 -4 -35 -10 -35 -5 0 -10 -14 -10 -30 0 -17 -5 -37
-12 -44 -10 -10 -17 -8 -35 10 -13 13 -23 28 -23 34 0 5 -4 10 -9 10 -5 0 -12
18 -16 40 -4 22 -10 40 -14 40 -14 0 -51 37 -51 50 0 7 -11 23 -25 36 -14 13
-25 28 -25 35 0 13 -38 49 -52 49 -4 0 -8 9 -8 20 0 10 -11 30 -25 44 -14 14
-25 30 -25 36 0 5 -4 10 -10 10 -5 0 -10 9 -10 19 0 11 -5 21 -11 23 -5 2 -13
22 -16 46 -3 23 -10 42 -14 42 -5 0 -9 7 -9 15 0 8 -4 15 -10 15 -5 0 -10 9
-10 20 0 11 -4 20 -10 20 -5 0 -10 15 -10 34 0 19 -7 41 -15 50 -8 8 -15 24
-15 35 0 12 -4 21 -10 21 -5 0 -10 8 -10 18 0 10 -9 24 -19 31 -13 9 -22 32
-26 63 -4 26 -11 48 -16 48 -5 0 -9 9 -9 20 0 11 -4 20 -10 20 -5 0 -10 11
-10 25 0 14 -4 25 -10 25 -5 0 -10 13 -10 29 0 16 -6 31 -15 35 -9 3 -15 18
-15 36 0 16 -4 30 -10 30 -5 0 -10 6 -10 13 0 7 -9 19 -20 27 -12 8 -20 26
-20 42 0 15 -4 28 -9 28 -5 0 -12 11 -15 25 -4 14 -11 25 -16 25 -6 0 -10 10
-10 23 0 12 -9 29 -20 37 -11 8 -20 22 -20 32 0 10 -4 18 -10 18 -5 0 -10 11
-10 24 0 14 -7 31 -15 40 -8 8 -15 19 -15 25 0 6 -4 11 -10 11 -5 0 -10 14
-10 30 0 17 -4 30 -10 30 -5 0 -12 11 -16 25 -3 14 -10 25 -15 25 -5 0 -9 13
-9 29 0 21 -6 32 -20 36 -11 3 -20 15 -20 26 0 10 -4 19 -10 19 -5 0 -10 11
-10 24 0 14 -7 31 -15 40 -8 8 -15 22 -15 30 0 9 -4 16 -10 16 -5 0 -10 10
-10 23 0 12 -9 29 -20 37 -11 8 -20 20 -20 27 0 7 -16 28 -35 47 -19 20 -35
40 -35 46 0 5 -4 10 -9 10 -5 0 -12 18 -16 40 -6 36 -10 40 -36 40 -35 0 -79
-39 -79 -70 0 -11 -4 -20 -10 -20 -5 0 -10 -7 -10 -16 0 -8 -7 -22 -15 -30 -9
-9 -15 -34 -15 -60 0 -24 -4 -44 -10 -44 -5 0 -10 -7 -10 -15 0 -8 -4 -15 -10
-15 -5 0 -10 -9 -10 -20 0 -11 -4 -20 -10 -20 -5 0 -10 -20 -10 -45 0 -25 -4
-45 -9 -45 -5 0 -12 -20 -15 -45 -4 -25 -11 -45 -17 -45 -5 0 -9 -7 -9 -15 0
-16 -27 -20 -47 -7 -6 4 -15 35 -19 70 -3 34 -11 62 -15 62 -5 0 -9 25 -9 55
0 30 -4 55 -10 55 -5 0 -10 20 -10 45 0 25 -4 45 -10 45 -5 0 -10 7 -10 15 0
8 -4 15 -9 15 -5 0 -12 41 -16 90 -4 50 -11 90 -16 90 -5 0 -9 14 -9 30 0 17
-4 30 -10 30 -5 0 -10 16 -10 35 0 19 -4 35 -10 35 -5 0 -10 20 -10 45 0 31
-5 47 -15 51 -11 5 -15 21 -15 60 0 30 -4 54 -10 54 -5 0 -10 19 -10 41 0 29
-6 47 -20 59 -14 12 -22 36 -27 81 -4 43 -12 69 -25 80 -13 12 -18 30 -18 68
0 28 -4 51 -10 51 -5 0 -10 5 -10 11 0 6 -7 17 -15 25 -8 9 -15 33 -15 55 0
22 -6 47 -14 55 -17 16 -66 19 -66 4 0 -5 -9 -10 -21 -10 -30 0 -50 -25 -56
-70 -3 -22 -9 -40 -14 -40 -7 0 -51 -42 -85 -82 -6 -7 -21 -20 -33 -28 -11 -8
-21 -22 -21 -32 0 -10 -4 -18 -9 -18 -5 0 -11 -18 -15 -41 -8 -49 -23 -67 -62
-71 l-29 -3 -3 273 c-1 170 -6 272 -12 272 -6 0 -10 9 -10 20 0 13 -7 20 -20
20 -11 0 -20 5 -20 10 0 21 -26 8 -60 -30z m-3230 -4630 c0 -5 11 -10 25 -10
14 0 25 -4 25 -9 0 -6 20 -13 45 -17 25 -3 45 -10 45 -15 0 -5 14 -9 30 -9 17
0 30 -4 30 -10 0 -5 18 -10 40 -10 22 0 40 -4 40 -10 0 -6 35 -10 85 -10 47 0
85 -4 85 -9 0 -4 37 -11 83 -15 45 -4 84 -11 85 -16 2 -6 42 -10 88 -10 49 0
84 -4 84 -10 0 -5 20 -10 44 -10 24 0 46 -5 48 -11 2 -7 52 -13 131 -16 70 -3
127 -10 127 -14 0 -5 41 -9 90 -9 53 0 90 -4 90 -10 0 -6 37 -10 90 -10 53 0
90 -4 90 -10 0 -6 51 -10 134 -10 99 0 135 -3 139 -12 5 -17 960 -15 965 2 5
13 892 14 892 1 0 -5 25 -12 55 -16 30 -3 55 -11 55 -16 0 -5 25 -9 55 -9 30
0 55 -4 55 -10 0 -5 7 -10 15 -10 8 0 15 -4 15 -10 0 -5 14 -10 30 -10 17 0
30 -4 30 -9 0 -4 21 -11 47 -14 26 -3 49 -10 51 -16 2 -6 17 -11 33 -11 16 0
29 -4 29 -10 0 -5 11 -10 25 -10 14 0 25 -4 25 -10 0 -5 14 -10 30 -10 17 0
30 -4 30 -9 0 -5 23 -12 50 -16 28 -4 50 -11 50 -16 0 -5 9 -9 20 -9 11 0 20
-4 20 -10 0 -5 11 -10 25 -10 14 0 25 -4 25 -10 0 -5 13 -10 29 -10 16 0 31
-5 33 -11 2 -5 22 -13 46 -16 23 -3 42 -10 42 -14 0 -5 11 -9 25 -9 14 0 25
-4 25 -10 0 -5 11 -10 25 -10 14 0 25 -4 25 -9 0 -5 25 -12 55 -16 30 -3 55
-11 55 -16 0 -5 9 -9 20 -9 11 0 20 -4 20 -10 0 -5 11 -10 25 -10 14 0 25 -4
25 -10 0 -5 9 -10 20 -10 11 0 20 -4 20 -9 0 -5 11 -12 25 -15 14 -4 25 -11
25 -16 0 -6 9 -10 20 -10 11 0 20 -4 20 -10 0 -5 7 -10 15 -10 8 0 15 -4 15
-10 0 -5 7 -10 16 -10 9 0 27 -11 40 -25 13 -14 28 -25 33 -25 14 0 181 -167
181 -181 0 -6 16 -25 35 -43 19 -19 35 -40 35 -47 0 -8 9 -21 20 -29 11 -8 20
-20 20 -27 0 -7 4 -13 9 -13 5 0 12 -16 15 -35 4 -19 11 -35 16 -35 6 0 10 -8
10 -18 0 -10 9 -24 20 -32 11 -8 20 -20 20 -27 0 -7 4 -13 9 -13 6 0 13 -20
17 -45 3 -25 10 -45 15 -45 5 0 9 -9 9 -20 0 -11 5 -20 10 -20 6 0 10 -11 10
-25 0 -14 4 -25 9 -25 5 0 13 -29 16 -65 4 -36 11 -65 16 -65 5 0 9 -11 9 -25
0 -14 5 -25 10 -25 6 0 10 -16 10 -35 0 -19 5 -35 10 -35 6 0 10 -16 10 -35 0
-19 4 -35 9 -35 5 0 12 -45 16 -100 3 -55 11 -100 16 -100 5 0 9 -20 9 -45 0
-25 5 -45 10 -45 6 0 10 -28 10 -65 0 -37 4 -65 10 -65 6 0 10 -33 10 -80 0
-44 4 -80 9 -80 5 0 12 -99 16 -220 4 -121 11 -220 16 -220 5 0 9 -18 9 -40 0
-22 5 -40 10 -40 6 0 10 -65 10 -175 0 -110 4 -175 10 -175 6 0 10 -20 10 -45
0 -25 5 -45 10 -45 6 0 10 -58 10 -155 0 -97 -4 -155 -10 -155 -5 0 -10 -15
-10 -33 0 -21 -7 -38 -20 -47 -15 -11 -20 -26 -20 -57 0 -37 -3 -43 -21 -43
-11 0 -27 -6 -35 -14 -7 -8 -19 -16 -26 -18 -17 -6 14 -38 36 -38 9 0 16 -4
16 -10 0 -5 16 -10 35 -10 19 0 35 5 35 10 0 21 20 9 26 -15 3 -14 10 -25 15
-25 5 0 9 -9 9 -20 0 -11 5 -20 10 -20 15 0 12 -19 -6 -37 -13 -14 -17 -14
-25 -2 -5 8 -9 20 -9 27 0 8 -18 12 -55 12 -30 0 -55 -4 -55 -10 0 -5 -9 -10
-20 -10 -11 0 -20 5 -20 10 0 6 -11 10 -25 10 -22 0 -25 4 -25 35 0 19 5 35
10 35 6 0 10 5 10 10 0 18 -55 11 -70 -10 -15 -21 -80 -29 -80 -10 0 6 -7 10
-15 10 -8 0 -15 5 -15 10 0 6 -20 10 -45 10 -25 0 -45 5 -45 10 0 6 -9 10 -20
10 -11 0 -20 5 -20 10 0 6 -7 10 -15 10 -9 0 -15 9 -15 25 0 21 -5 25 -30 25
-16 0 -30 -4 -30 -10 0 -5 -5 -10 -11 -10 -15 0 -39 26 -39 43 0 11 -17 16
-67 19 -39 2 -68 9 -71 16 -2 7 -12 12 -23 12 -10 0 -19 5 -19 10 0 6 -9 10
-19 10 -11 0 -23 9 -26 20 -7 24 -3 22 -84 24 -40 1 -66 6 -69 14 -2 7 -10 12
-18 12 -8 0 -14 5 -14 10 0 6 -20 10 -45 10 -25 0 -45 5 -45 10 0 6 -9 10 -20
10 -11 0 -20 4 -20 9 0 4 -39 11 -87 14 -48 4 -89 11 -91 17 -2 5 -30 10 -63
10 -33 0 -59 4 -59 10 0 6 -31 10 -74 10 -46 0 -76 4 -78 11 -2 7 -42 13 -96
17 -51 2 -92 9 -92 13 0 5 -92 9 -205 9 -130 0 -205 4 -205 10 0 15 -107 13
-114 -2 -5 -10 -7 -10 -12 0 -7 15 -204 17 -204 2 0 -5 16 -10 35 -10 19 0 35
-4 35 -9 0 -4 33 -11 73 -15 39 -4 74 -11 75 -16 2 -6 19 -10 38 -10 19 0 34
-4 34 -10 0 -5 9 -10 20 -10 11 0 20 -4 20 -10 0 -6 55 -10 143 -11 78 0 136
-3 130 -6 -17 -6 -16 -31 1 -49 12 -11 57 -14 231 -14 174 0 219 -3 231 -14 8
-8 14 -19 14 -25 0 -16 117 -14 124 2 5 10 7 10 12 0 3 -8 26 -13 60 -13 42 0
54 -3 54 -16 0 -18 23 -44 39 -44 6 0 11 5 11 10 0 6 16 10 35 10 19 0 35 -4
35 -9 0 -5 14 -11 30 -14 21 -5 30 -12 30 -27 0 -11 7 -20 15 -20 8 0 15 5 15
10 0 6 19 10 43 10 31 0 46 -5 57 -20 8 -11 22 -20 32 -20 10 0 18 -4 18 -10
0 -5 15 -10 34 -10 33 0 66 -21 66 -41 0 -5 18 -9 39 -9 31 0 41 -4 46 -20 3
-11 15 -20 25 -20 11 0 25 -7 32 -15 25 -31 56 -60 76 -74 11 -8 23 -27 26
-42 3 -16 14 -30 26 -34 11 -3 20 -15 20 -26 0 -10 5 -19 10 -19 6 0 10 -9 10
-20 0 -11 4 -20 10 -20 5 0 12 -16 16 -35 3 -19 10 -35 15 -35 5 0 9 -16 9
-35 0 -19 5 -35 10 -35 6 0 10 -7 10 -15 0 -8 5 -15 10 -15 6 0 10 -24 10 -54
0 -34 5 -57 13 -60 10 -5 10 -7 0 -12 -7 -3 -13 -16 -13 -29 0 -13 6 -25 13
-28 9 -3 12 -81 12 -347 0 -266 -3 -344 -12 -348 -15 -4 -18 -72 -3 -72 6 0
10 -24 10 -53 0 -41 -4 -56 -20 -67 -11 -8 -20 -25 -20 -37 0 -13 -4 -23 -10
-23 -5 0 -10 -23 -10 -50 0 -28 -6 -58 -12 -66 -7 -8 -19 -21 -25 -29 -7 -7
-13 -34 -13 -59 0 -25 -4 -46 -10 -46 -5 0 -10 -9 -10 -20 0 -11 -4 -20 -10
-20 -5 0 -10 -9 -10 -20 0 -11 -4 -20 -9 -20 -5 0 -11 -18 -15 -40 -3 -22 -11
-40 -16 -40 -6 0 -10 -9 -10 -20 0 -11 -4 -20 -10 -20 -5 0 -10 -9 -10 -19 0
-11 -9 -22 -19 -26 -13 -4 -22 -19 -26 -45 -4 -22 -10 -40 -14 -40 -17 0 -48
-36 -55 -62 -3 -16 -11 -28 -16 -28 -6 0 -10 -5 -10 -11 0 -6 -13 -24 -30 -39
-16 -15 -30 -33 -30 -39 0 -6 -16 -26 -36 -45 -20 -18 -40 -38 -45 -42 -5 -5
-22 -24 -38 -41 -16 -18 -36 -33 -44 -33 -29 0 -47 -12 -47 -31 0 -10 5 -19
11 -19 14 0 39 -25 39 -39 0 -6 -7 -11 -15 -11 -11 0 -15 -11 -15 -40 0 -36
-2 -40 -26 -40 -31 0 -48 16 -58 53 -10 40 -46 38 -46 -3 0 -16 5 -30 10 -30
6 0 10 -11 10 -25 0 -20 -5 -25 -24 -25 -13 0 -26 4 -28 8 -1 5 -16 12 -33 15
-16 3 -24 4 -17 1 6 -3 12 -14 12 -25 0 -10 5 -19 10 -19 6 0 10 -7 10 -15 0
-26 -65 -19 -94 10 -14 14 -32 25 -39 25 -22 0 -31 -33 -13 -46 9 -6 16 -18
16 -25 0 -8 9 -21 20 -29 29 -21 25 -30 -15 -30 -19 0 -35 5 -35 10 0 6 -7 10
-16 10 -9 0 -29 14 -44 30 -31 33 -54 38 -76 16 -16 -17 -19 -46 -4 -46 6 0
10 -7 10 -15 0 -8 5 -15 10 -15 6 0 10 -9 10 -20 0 -13 -7 -20 -20 -20 -11 0
-20 5 -20 10 0 6 -7 10 -15 10 -8 0 -15 5 -15 10 0 6 -9 10 -19 10 -11 0 -26
7 -35 15 -10 11 -36 15 -87 15 -64 0 -74 -3 -95 -25 -24 -26 -50 -33 -56 -15
-2 7 -69 11 -181 12 -136 0 -181 4 -192 14 -7 8 -34 14 -59 14 -25 0 -46 5
-46 10 0 6 -33 10 -80 10 -47 0 -80 4 -80 10 0 6 -9 10 -19 10 -11 0 -21 5
-23 10 -2 6 -33 13 -71 17 -37 3 -67 10 -67 14 0 5 -9 9 -20 9 -11 0 -20 5
-20 10 0 6 -7 10 -15 10 -8 0 -15 5 -15 10 0 6 -9 10 -19 10 -11 0 -26 7 -35
15 -8 8 -19 15 -25 15 -6 0 -11 5 -11 10 0 6 -9 10 -20 10 -11 0 -20 5 -20 10
0 6 -9 10 -20 10 -11 0 -20 4 -20 9 0 5 -15 13 -32 17 -18 3 -40 15 -49 25 -9
11 -19 19 -23 19 -4 0 -18 11 -32 25 -14 14 -31 25 -39 25 -8 0 -15 5 -15 10
0 6 -8 10 -18 10 -10 0 -24 10 -32 21 -8 12 -21 27 -28 33 -55 47 -172 169
-172 179 0 7 -9 19 -20 27 -11 8 -20 22 -20 31 0 9 -7 19 -15 23 -8 3 -15 15
-15 26 0 11 -4 20 -10 20 -5 0 -10 9 -10 20 0 11 -4 20 -8 20 -19 0 -50 37
-56 68 -4 17 -12 32 -17 32 -5 0 -9 9 -9 20 0 11 -4 20 -10 20 -5 0 -10 7 -10
15 0 8 -4 15 -10 15 -5 0 -10 9 -10 20 0 11 -4 20 -9 20 -5 0 -12 16 -15 35
-4 19 -11 35 -16 35 -6 0 -10 14 -10 30 0 17 -4 30 -10 30 -5 0 -10 16 -10 35
0 19 -4 35 -10 35 -5 0 -10 7 -10 15 0 8 -4 15 -9 15 -4 0 -11 24 -14 52 -4
29 -11 54 -17 56 -5 2 -10 12 -10 23 0 10 -4 19 -10 19 -5 0 -10 23 -10 50 0
28 -4 50 -10 50 -6 0 -10 37 -10 90 0 50 -4 90 -9 90 -4 0 -11 19 -14 42 -3
24 -11 44 -16 46 -14 5 -14 72 -1 72 6 0 10 20 10 45 0 25 -4 45 -10 45 -5 0
-10 25 -10 55 0 30 5 55 10 55 6 0 10 20 10 45 0 25 -4 45 -10 45 -6 0 -10 33
-10 79 0 54 -4 81 -12 85 -10 5 -10 7 0 12 6 3 12 14 12 24 0 11 10 20 25 24
23 6 25 11 25 61 0 30 -4 55 -10 55 -15 0 -12 80 4 96 8 8 22 14 30 14 9 0 16
7 16 15 0 8 -4 15 -10 15 -15 0 -12 49 3 64 7 8 23 17 35 20 12 4 22 14 22 23
0 16 56 73 72 73 15 0 38 27 38 44 0 9 8 16 19 16 10 0 27 11 37 25 10 14 26
25 34 25 8 0 24 11 34 25 15 20 28 25 62 25 58 0 60 15 7 75 -19 20 -16 35 8
35 19 0 49 -21 49 -35 0 -13 29 -35 45 -35 16 0 45 22 45 35 0 10 -28 35 -39
35 -6 0 -11 7 -11 16 0 26 -40 54 -77 54 -29 0 -33 -3 -33 -25 0 -19 -5 -25
-20 -25 -12 0 -32 -10 -45 -22 -47 -44 -57 -51 -64 -41 -19 29 -71 23 -71 -8
0 -10 -4 -19 -9 -19 -5 0 -11 -10 -13 -22 -2 -15 -11 -24 -25 -26 -13 -2 -23
-8 -23 -13 0 -5 -9 -9 -20 -9 -15 0 -22 -9 -26 -30 -4 -16 -10 -30 -15 -30 -4
0 -19 -11 -33 -25 -14 -14 -30 -25 -36 -25 -6 0 -10 -23 -10 -55 0 -54 0 -55
-30 -55 -23 0 -30 4 -30 20 0 23 -66 90 -90 90 -5 0 -10 5 -10 10 0 6 -13 10
-30 10 -16 0 -30 4 -30 10 0 5 -11 12 -25 16 -14 3 -25 10 -25 15 0 5 -9 9
-20 9 -11 0 -20 5 -20 10 0 6 -7 10 -15 10 -8 0 -15 5 -15 10 0 6 -13 10 -30
10 -16 0 -30 4 -30 9 0 5 -22 12 -50 16 -27 4 -50 11 -50 16 0 5 -13 9 -30 9
-16 0 -30 5 -30 10 0 6 -16 10 -35 10 -19 0 -35 5 -35 10 0 6 -28 10 -65 10
-58 0 -65 -2 -65 -19 0 -11 -7 -27 -16 -35 -14 -14 -43 -16 -207 -14 -191 3
-192 3 -195 26 -2 12 -8 22 -13 22 -5 0 -9 9 -9 20 0 16 -7 20 -35 20 -19 0
-35 -4 -35 -10 0 -6 -28 -10 -65 -10 -37 0 -65 -4 -65 -10 0 -5 -11 -10 -25
-10 -14 0 -25 -4 -25 -10 0 -5 -13 -10 -30 -10 -16 0 -30 -4 -30 -10 0 -5 -16
-12 -35 -16 -19 -3 -35 -10 -35 -15 0 -5 -25 -9 -55 -9 -30 0 -55 -4 -55 -10
0 -16 -50 -60 -69 -60 -19 0 -31 26 -31 68 0 12 -4 22 -10 22 -5 0 -10 7 -10
15 0 8 -4 15 -10 15 -5 0 -10 9 -10 20 0 11 -4 20 -10 20 -5 0 -10 7 -10 15 0
8 -4 15 -10 15 -5 0 -10 9 -10 19 0 11 -7 26 -15 35 -8 8 -15 19 -15 25 0 6
-4 11 -10 11 -5 0 -10 9 -10 20 0 11 -7 20 -15 20 -8 0 -15 9 -15 19 0 11 -9
23 -20 26 -11 3 -20 13 -20 21 0 22 -25 44 -49 44 -14 0 -21 -6 -21 -20 0 -28
-31 -25 -54 5 -10 14 -25 25 -33 25 -8 0 -28 14 -43 30 -15 17 -33 30 -39 30
-6 0 -11 4 -11 9 0 6 -20 13 -45 17 -41 6 -45 9 -45 35 0 16 5 29 10 29 6 0
10 7 10 15 0 10 -10 15 -30 15 -18 0 -33 -6 -36 -15 -4 -8 -17 -15 -31 -15
-26 0 -53 -21 -53 -41 0 -8 -12 -23 -26 -36 -24 -20 -25 -24 -11 -38 9 -8 23
-15 32 -15 20 0 45 24 45 43 0 8 11 17 25 20 l26 4 -7 -58 c-6 -56 -6 -59 15
-59 24 0 51 21 51 39 0 6 7 11 15 11 11 0 15 -12 15 -45 0 -43 1 -45 30 -45
25 0 30 -4 30 -25 0 -20 5 -25 25 -25 20 0 25 -5 25 -25 0 -21 5 -25 31 -25
33 0 59 -19 59 -44 0 -9 7 -16 15 -16 27 0 55 -38 55 -75 0 -31 3 -35 26 -35
29 0 84 -49 84 -74 0 -8 6 -16 13 -19 9 -3 11 -89 9 -398 -2 -223 -8 -395 -13
-397 -5 -2 -9 -12 -9 -22 0 -10 -9 -22 -20 -25 -18 -6 -20 -15 -20 -96 0 -83
-1 -89 -21 -89 -25 0 -60 -31 -41 -38 21 -7 15 -82 -9 -103 -12 -10 -23 -35
-26 -58 -4 -28 -11 -42 -24 -46 -13 -4 -19 -16 -19 -36 0 -16 -4 -29 -10 -29
-5 0 -10 -5 -10 -11 0 -6 -7 -17 -15 -25 -8 -9 -15 -24 -15 -35 0 -10 -4 -19
-10 -19 -5 0 -10 -11 -10 -25 0 -14 -4 -25 -10 -25 -5 0 -10 -9 -10 -20 0 -11
-4 -20 -10 -20 -5 0 -10 -7 -10 -15 0 -8 -4 -15 -9 -15 -5 0 -11 -14 -15 -31
-3 -17 -19 -43 -36 -59 -16 -15 -30 -35 -30 -43 0 -8 -7 -17 -15 -21 -8 -3
-15 -13 -15 -23 0 -10 -16 -31 -35 -48 -19 -16 -35 -36 -35 -43 0 -8 -15 -27
-32 -43 -18 -16 -36 -32 -40 -36 -8 -8 -40 -40 -80 -80 -13 -13 -33 -34 -46
-48 -12 -14 -32 -25 -42 -25 -11 0 -20 -4 -20 -10 0 -15 -69 -80 -85 -80 -8 0
-15 -4 -15 -10 0 -5 -9 -10 -20 -10 -11 0 -20 -4 -20 -10 0 -5 -7 -10 -15 -10
-8 0 -15 -4 -15 -10 0 -5 -9 -10 -20 -10 -11 0 -20 -4 -20 -9 0 -5 -16 -12
-35 -15 -19 -4 -35 -11 -35 -16 0 -6 -9 -10 -20 -10 -11 0 -20 -4 -20 -10 0
-5 -11 -10 -25 -10 -14 0 -25 -4 -25 -10 0 -5 -9 -10 -20 -10 -11 0 -20 -4
-20 -9 0 -5 -20 -12 -44 -15 -32 -5 -47 -13 -51 -27 -6 -17 -16 -19 -96 -19
-53 0 -89 -4 -89 -10 0 -5 -20 -10 -44 -10 -26 0 -51 -6 -60 -15 -8 -8 -24
-15 -35 -15 -12 0 -21 -4 -21 -10 0 -5 9 -10 21 -10 22 0 49 -22 49 -39 0 -6
-13 -11 -30 -11 -20 0 -30 5 -30 15 0 12 -16 15 -80 15 -47 0 -80 -4 -80 -10
0 -5 -11 -10 -25 -10 -14 0 -25 5 -25 10 0 16 -60 12 -76 -5 -11 -11 -35 -15
-82 -14 -37 1 -57 4 -44 6 18 4 22 11 22 43 0 41 -11 50 -61 50 -16 0 -29 5
-29 10 0 6 -18 10 -40 10 -38 0 -48 -4 -85 -37 -7 -7 -18 -13 -24 -13 -6 0
-11 -4 -11 -10 0 -5 -25 -10 -55 -10 -30 0 -55 5 -55 10 0 6 9 10 20 10 29 0
28 56 -2 81 -11 11 -25 19 -29 19 -21 0 -39 -14 -39 -31 0 -12 -7 -19 -20 -19
-11 0 -20 -4 -20 -10 0 -5 -11 -10 -25 -10 -21 0 -25 5 -25 30 0 17 5 30 10
30 15 0 12 19 -4 36 -22 21 -34 17 -70 -21 -37 -38 -50 -42 -72 -21 -16 17
-19 56 -4 56 6 0 10 9 10 20 0 11 -4 20 -10 20 -5 0 -10 -4 -10 -10 0 -5 -11
-10 -25 -10 -14 0 -25 -4 -25 -10 0 -5 -7 -10 -16 -10 -11 0 -14 6 -8 23 3 12
11 23 15 25 15 6 10 42 -6 42 -8 0 -15 -9 -15 -20 0 -17 -7 -20 -40 -20 l-40
0 0 45 c0 33 -4 45 -15 45 -10 0 -15 10 -15 30 0 17 -4 30 -10 30 -5 0 -10 5
-10 10 0 11 -23 39 -68 83 -41 41 -70 69 -78 78 -5 5 -24 22 -41 38 -18 16
-33 36 -33 45 0 9 -7 19 -15 22 -8 4 -15 15 -15 25 0 10 -4 19 -10 19 -5 0
-10 9 -10 19 0 10 -7 21 -15 25 -8 3 -15 14 -15 23 0 10 -9 25 -20 33 -11 8
-20 20 -20 27 0 7 -4 13 -10 13 -5 0 -10 9 -10 20 0 11 -4 20 -10 20 -5 0 -12
16 -16 35 -3 19 -10 35 -15 35 -5 0 -9 9 -9 20 0 11 -4 20 -10 20 -5 0 -10 6
-10 13 0 7 -9 19 -20 27 -16 12 -20 26 -20 78 0 46 -4 64 -15 68 -11 5 -15 24
-15 80 0 43 -4 74 -10 74 -5 0 -10 7 -10 15 0 8 -4 15 -10 15 -5 0 -10 9 -10
19 0 11 -5 21 -12 23 -9 3 -13 90 -15 330 l-3 327 25 25 c25 25 36 86 15 86
-5 0 -10 25 -10 56 0 57 14 84 44 84 13 0 16 12 16 64 0 56 3 65 25 82 30 23
32 45 5 64 -11 8 -20 24 -20 35 0 11 9 27 20 35 11 8 20 25 20 37 0 13 5 23
10 23 6 0 10 9 10 20 0 11 4 20 9 20 5 0 13 10 17 22 4 13 20 35 35 49 16 15
29 32 29 38 0 6 4 11 9 11 5 0 11 13 14 29 4 16 14 32 24 35 10 3 25 16 33 27
24 35 105 109 120 109 5 0 10 5 10 10 0 6 9 10 19 10 11 0 21 5 23 11 2 6 27
14 56 17 39 3 53 9 57 23 4 11 15 19 26 19 10 0 19 5 19 10 0 15 117 13 122
-2 3 -8 14 -3 32 15 25 25 33 27 106 27 47 0 80 4 80 10 0 15 40 12 41 -2 0
-10 2 -10 6 0 6 15 313 18 313 2 0 -6 90 -10 250 -10 160 0 250 4 250 10 0 6
37 10 90 10 89 0 90 0 90 25 0 14 5 25 10 25 6 0 10 9 10 20 0 16 -7 20 -30
20 -16 0 -30 5 -30 10 0 6 -27 10 -60 10 -33 0 -60 -4 -60 -10 0 -5 -20 -10
-45 -10 -25 0 -45 -4 -45 -10 0 -6 -40 -10 -100 -10 l-100 0 0 29 c0 28 -3 30
-45 37 -61 9 -435 -6 -435 -17 0 -5 -34 -9 -75 -9 -43 0 -75 -4 -75 -10 0 -6
-30 -10 -70 -10 -40 0 -70 -4 -70 -10 0 -5 -11 -10 -25 -10 -14 0 -25 -4 -25
-9 0 -5 -39 -11 -87 -13 -57 -2 -88 -7 -91 -16 -2 -6 -17 -12 -33 -12 -16 0
-29 -4 -29 -10 0 -5 -15 -10 -34 -10 -19 0 -36 -5 -38 -11 -2 -7 -42 -13 -96
-17 -51 -2 -92 -9 -92 -13 0 -5 -13 -9 -30 -9 -16 0 -30 -4 -30 -10 0 -5 -11
-10 -25 -10 -14 0 -25 -4 -25 -10 0 -6 -37 -10 -90 -10 -53 0 -90 4 -90 10 0
15 -87 12 -93 -2 -3 -9 -11 -6 -24 10 -11 12 -24 22 -27 22 -16 0 -36 -30 -36
-55 0 -27 -26 -63 -37 -51 -10 10 -5 130 6 134 6 2 11 19 11 38 0 19 5 34 10
34 6 0 10 9 10 20 0 11 5 20 10 20 6 0 10 32 10 76 0 54 4 80 15 90 8 9 15 31
15 50 0 19 5 34 10 34 6 0 10 25 10 55 0 30 5 55 10 55 6 0 10 7 10 15 0 8 5
15 10 15 6 0 10 18 10 40 0 22 4 40 9 40 4 0 11 30 14 67 4 38 11 69 17 71 5
2 10 24 10 48 0 24 5 44 10 44 6 0 10 15 10 34 0 19 5 36 10 38 6 2 13 27 17
56 3 28 10 52 14 52 5 0 9 20 9 45 0 25 5 45 10 45 6 0 10 11 10 25 0 14 5 25
10 25 6 0 10 16 10 35 0 19 4 35 9 35 4 0 11 28 14 62 3 34 10 64 16 66 6 2
11 28 11 58 0 30 5 54 10 54 6 0 10 16 10 35 0 19 5 35 10 35 6 0 10 11 10 25
0 14 4 25 9 25 4 0 11 24 14 52 4 29 11 54 17 56 5 2 10 19 10 38 0 19 5 34
10 34 6 0 10 16 10 35 0 19 5 35 10 35 6 0 10 13 10 29 0 16 5 31 11 33 6 2
13 25 16 51 3 26 10 47 14 47 5 0 9 14 9 30 0 17 5 30 10 30 6 0 10 11 10 25
0 14 4 25 9 25 5 0 12 20 15 45 4 25 11 45 17 45 5 0 9 9 9 20 0 11 5 20 10
20 6 0 10 7 10 15 0 8 5 15 10 15 6 0 10 9 10 20 0 11 4 20 10 20 5 0 12 16
16 35 3 19 10 35 15 35 5 0 9 7 9 15 0 8 5 15 10 15 6 0 10 9 10 20 0 11 5 20
10 20 6 0 10 9 10 20 0 11 5 20 10 20 6 0 10 7 10 15 0 8 11 25 25 39 14 14
25 28 25 31 0 3 11 17 25 31 14 14 25 34 25 44 0 11 5 20 10 20 6 0 10 5 10
10 0 6 29 39 65 75 36 35 65 68 65 73 0 14 36 52 49 52 6 0 36 25 66 55 29 30
57 55 60 55 4 0 13 7 21 15 9 8 24 15 35 15 10 0 19 5 19 10 0 6 6 10 13 10 7
0 19 9 27 20 8 11 22 20 32 20 10 0 18 4 18 10 0 5 16 12 35 16 19 3 35 10 35
15 0 5 7 9 15 9 8 0 15 5 15 10 0 6 18 10 40 10 22 0 40 4 40 9 0 4 95 10 212
13 141 4 214 10 216 17 2 7 41 11 108 11 63 0 104 4 104 10 0 6 28 10 65 10
37 0 65 4 65 10 0 6 35 10 85 10 47 0 85 4 85 9 0 4 84 11 188 15 103 4 189
11 190 17 2 5 71 9 158 9 96 0 154 4 154 10 0 6 45 10 115 10 70 0 115 -4 115
-10z m-3350 -3695 c0 -13 -38 -4 -44 11 -14 36 -6 45 19 20 14 -14 25 -28 25
-31z m-95 10 c14 -13 25 -31 25 -40 0 -23 25 -45 49 -45 17 0 21 6 21 30 0 23
4 30 20 30 15 0 22 -9 27 -30 3 -16 9 -30 14 -30 5 0 9 -11 9 -25 0 -14 5 -25
10 -25 6 0 10 -48 10 -125 0 -77 -4 -125 -10 -125 -5 0 -10 -9 -10 -20 0 -11
-4 -20 -10 -20 -5 0 -10 -11 -10 -25 0 -13 -11 -35 -25 -49 -20 -20 -25 -35
-25 -76 0 -27 5 -50 10 -50 6 0 10 -11 10 -25 0 -14 -4 -25 -10 -25 -6 0 -10
-58 -10 -155 0 -153 0 -156 -25 -181 -14 -14 -25 -29 -25 -33 0 -5 11 -17 25
-27 22 -17 25 -26 25 -86 0 -39 4 -68 10 -68 6 0 10 -18 10 -40 0 -22 4 -40
10 -40 5 0 12 -16 16 -35 3 -19 10 -35 15 -35 5 0 9 -7 9 -15 0 -8 5 -15 10
-15 6 0 10 -25 10 -55 0 -30 5 -55 10 -55 6 0 10 -9 10 -19 0 -10 7 -21 15
-25 9 -3 15 -18 14 -38 0 -18 -3 -27 -6 -20 -2 6 -18 12 -34 12 -23 0 -29 -4
-29 -21 0 -25 31 -60 38 -41 6 19 41 14 66 -11 14 -14 25 -41 29 -72 4 -27 13
-53 20 -57 9 -6 9 -10 -3 -18 -12 -8 -11 -10 8 -10 15 0 22 -6 22 -20 0 -11 5
-20 10 -20 6 0 10 -5 10 -11 0 -6 7 -17 15 -25 8 -9 15 -29 15 -45 0 -16 5
-29 10 -29 6 0 10 -7 10 -15 0 -8 5 -15 10 -15 6 0 10 7 10 15 0 8 9 15 20 15
11 0 20 -7 20 -15 0 -8 -4 -15 -10 -15 -5 0 -10 -13 -10 -30 0 -23 5 -31 25
-36 14 -3 25 -13 25 -21 0 -21 25 -43 49 -43 12 0 21 -6 21 -15 0 -11 11 -15
43 -15 31 0 46 -5 57 -20 8 -11 22 -20 32 -20 10 0 18 -6 18 -13 0 -20 35 -57
54 -57 9 0 16 -8 16 -20 0 -11 5 -20 10 -20 6 0 10 -16 10 -35 0 -32 -3 -35
-28 -35 -17 0 -33 8 -42 21 -8 12 -21 27 -27 35 -7 7 -13 15 -13 19 0 12 -29
35 -44 35 -8 0 -18 9 -21 20 -3 11 -11 20 -16 20 -5 0 -9 -9 -9 -20 0 -11 4
-20 9 -20 5 0 13 -10 17 -22 4 -13 20 -35 35 -49 16 -15 29 -32 29 -38 0 -16
38 -51 55 -51 8 0 15 -4 15 -10 0 -5 9 -10 20 -10 14 0 20 7 20 21 0 19 1 19
17 4 13 -14 14 -18 3 -25 -18 -11 5 -34 43 -44 19 -4 27 -13 27 -29 0 -54 10
-67 52 -67 32 0 46 -6 68 -30 19 -21 38 -30 59 -30 19 0 39 -9 55 -25 14 -14
34 -25 45 -25 11 0 22 -6 25 -12 5 -10 7 -10 12 0 3 7 24 12 50 12 40 0 44 -2
44 -25 0 -24 3 -25 59 -25 38 0 61 -5 65 -12 5 -10 7 -10 12 0 8 17 82 15 100
-2 8 -8 14 -22 14 -30 0 -14 41 -16 381 -16 400 0 409 1 409 44 0 13 15 16 95
16 l95 0 0 35 c0 33 2 35 35 35 19 0 35 -4 35 -10 0 -15 80 -12 96 4 19 20 18
26 -5 26 -26 0 -51 10 -51 21 0 5 9 9 20 9 11 0 20 6 21 13 0 10 2 10 6 0 2
-7 11 -13 20 -13 8 0 21 -7 29 -15 17 -17 44 -20 44 -6 0 23 -14 41 -31 41
-10 0 -19 7 -19 15 0 9 9 15 25 15 14 0 25 5 25 10 0 6 14 10 30 10 23 0 30 4
30 20 0 11 7 20 15 20 8 0 15 5 15 10 0 6 13 10 29 10 22 0 30 6 35 25 4 14
13 25 22 25 8 0 26 11 40 25 14 14 30 25 35 25 6 0 27 17 48 39 20 21 47 41
59 45 12 4 22 14 22 22 0 19 40 60 68 68 12 4 22 14 22 23 0 9 11 26 25 39 14
13 25 28 25 35 0 6 14 24 30 39 17 15 30 33 30 39 0 5 11 21 25 35 14 14 25
28 25 32 0 4 8 14 18 23 11 9 22 28 26 44 3 15 11 27 16 27 6 0 10 6 10 13 0
7 9 19 20 27 11 8 20 25 20 37 0 13 4 23 9 23 5 0 11 13 14 29 4 18 14 32 27
36 13 4 20 15 20 32 0 14 10 34 21 44 14 12 23 35 26 64 3 25 10 45 14 45 5 0
9 8 9 18 0 10 9 24 20 32 15 11 20 26 20 62 0 37 5 52 25 72 20 20 25 35 25
72 0 50 28 88 56 77 17 -6 19 -40 2 -45 -21 -7 15 -36 48 -40 24 -2 30 1 32
20 2 12 8 22 13 22 5 0 9 9 9 20 0 11 -4 20 -9 20 -5 0 -12 11 -15 25 -5 20
-13 25 -36 25 -28 0 -30 3 -30 35 0 19 5 35 10 35 6 0 10 9 10 20 0 11 5 20
10 20 6 0 10 7 10 15 0 8 7 15 15 15 8 0 15 -4 15 -10 0 -18 31 -10 56 15 32
33 44 113 20 137 -9 9 -16 21 -16 27 0 6 -4 11 -10 11 -5 0 -10 16 -10 35 0
19 -4 35 -10 35 -6 0 -10 55 -10 145 0 90 4 145 10 145 6 0 10 9 10 20 0 11 5
20 10 20 6 0 10 7 10 15 0 10 -10 15 -30 15 -16 0 -30 -4 -30 -10 0 -5 -7 -10
-15 -10 -11 0 -15 12 -15 45 0 30 4 45 13 45 7 0 19 9 27 20 8 12 26 20 42 20
15 0 28 5 28 10 0 6 18 10 39 10 22 0 46 7 55 15 9 9 34 15 65 15 28 0 51 5
51 10 0 6 40 10 100 10 60 0 100 -4 100 -10 0 -6 78 -10 215 -10 137 0 215 4
215 10 0 17 87 12 94 -6 3 -9 4 -20 0 -25 -3 -5 12 -8 33 -8 23 1 29 3 16 6
-15 3 -23 12 -23 24 0 14 7 19 30 19 17 0 30 -4 30 -10 0 -5 7 -10 15 -10 8 0
15 -4 15 -9 0 -5 29 -13 65 -16 36 -4 65 -11 65 -16 0 -5 16 -9 35 -9 19 0 35
-4 35 -10 0 -5 7 -10 15 -10 8 0 15 -4 15 -9 0 -5 18 -12 40 -16 22 -4 40 -11
40 -16 0 -5 7 -9 15 -9 8 0 15 -4 15 -10 0 -5 13 -10 29 -10 21 0 32 -6 36
-20 3 -11 18 -23 33 -27 36 -9 52 -26 52 -57 0 -20 -6 -27 -27 -32 -36 -9 -49
-23 -57 -60 -4 -17 -16 -36 -26 -44 -26 -18 -25 -52 0 -70 21 -15 28 -70 10
-70 -5 0 -10 -6 -10 -13 0 -7 -9 -19 -20 -27 -11 -8 -20 -20 -20 -28 0 -7 -11
-23 -25 -36 -19 -18 -25 -33 -25 -65 0 -22 4 -41 8 -41 5 0 12 -44 15 -97 4
-54 11 -99 17 -101 13 -5 13 -52 0 -52 -5 0 -10 -20 -10 -45 0 -25 5 -45 10
-45 6 0 10 -20 10 -45 0 -25 5 -45 10 -45 6 0 10 -11 10 -25 0 -14 5 -25 10
-25 6 0 10 -18 10 -39 0 -22 4 -41 9 -43 5 -1 12 -22 15 -44 7 -39 6 -42 -18
-48 -23 -6 -26 -12 -26 -47 0 -39 17 -69 39 -69 6 0 11 5 11 10 0 6 10 10 23
10 17 0 19 2 8 9 -12 8 -12 12 2 25 22 22 27 20 27 -9 0 -14 5 -25 10 -25 6 0
10 -13 10 -29 0 -29 22 -61 41 -61 5 0 9 -9 9 -20 0 -11 4 -20 9 -20 4 0 11
-24 14 -52 4 -29 11 -54 17 -56 5 -2 10 -10 10 -18 0 -8 5 -14 10 -14 6 0 10
-14 10 -31 0 -18 8 -39 18 -48 11 -9 22 -34 25 -56 4 -22 11 -41 17 -43 5 -2
10 -12 10 -23 0 -10 5 -19 10 -19 6 0 10 -7 10 -15 0 -8 5 -15 10 -15 6 0 10
-9 10 -20 0 -11 4 -20 9 -20 5 0 13 -10 17 -22 4 -13 15 -30 25 -39 11 -9 19
-23 19 -32 0 -9 9 -19 20 -22 11 -3 20 -15 20 -25 0 -11 11 -30 25 -44 14 -14
25 -29 25 -33 0 -5 9 -15 20 -23 11 -8 20 -21 20 -28 0 -13 143 -162 156 -162
10 0 34 -28 34 -39 0 -6 7 -11 16 -11 16 0 54 -36 54 -51 0 -4 18 -10 40 -14
26 -4 41 -13 45 -26 4 -10 15 -19 26 -19 12 0 19 -7 19 -19 0 -21 19 -31 61
-31 22 0 29 -5 29 -20 0 -11 5 -20 10 -20 6 0 10 -4 10 -10 0 -5 -13 -10 -30
-10 -20 0 -30 -5 -30 -15 0 -20 27 -19 47 1 12 12 27 14 57 10 51 -9 54 -12
28 -35 -30 -25 -29 -51 3 -51 21 0 25 5 25 30 0 17 5 30 10 30 6 0 10 -4 10
-10 0 -5 14 -10 31 -10 20 0 39 -8 50 -21 14 -16 34 -22 84 -26 36 -3 65 -10
65 -14 0 -5 12 -9 26 -9 23 0 54 -20 54 -34 0 -3 -13 -6 -30 -6 -16 0 -30 5
-30 10 0 6 -16 10 -35 10 -28 0 -35 -4 -35 -19 0 -27 18 -31 130 -24 75 5 100
3 100 -6 0 -30 29 -41 103 -41 51 0 77 -4 81 -12 5 -10 7 -10 12 0 7 15 164
17 164 2 0 -5 9 -10 20 -10 11 0 20 5 20 10 0 6 67 10 180 10 113 0 180 4 180
10 0 6 -4 10 -10 10 -5 0 -10 7 -10 16 0 13 15 15 99 12 93 -3 101 -1 119 20
11 12 31 22 46 22 15 0 38 11 52 25 16 16 36 25 55 25 21 0 40 9 59 30 15 17
37 30 49 30 12 0 21 5 21 10 0 6 7 10 15 10 8 0 15 7 15 15 0 11 11 15 40 15
34 0 41 4 46 25 3 14 13 25 21 25 17 0 43 24 43 40 0 6 7 19 16 27 12 12 14
27 9 64 -7 48 -6 49 19 49 19 0 26 5 26 20 0 11 5 20 10 20 6 0 10 7 10 15 0
27 38 55 74 55 26 0 36 5 41 20 4 12 18 23 36 27 16 3 31 14 34 24 4 11 15 19
26 19 12 0 19 7 19 20 0 12 12 32 26 46 14 15 24 36 23 48 -2 37 1 46 17 46
25 0 44 26 44 59 0 21 5 31 15 31 8 0 15 9 15 20 0 11 5 20 10 20 6 0 10 15
10 33 0 21 7 38 20 47 11 8 20 20 20 27 0 7 4 13 9 13 4 0 11 19 14 42 3 24
11 44 16 46 6 2 11 17 11 33 0 16 5 29 10 29 6 0 10 16 10 35 0 19 5 35 10 35
6 0 10 12 10 28 0 47 11 72 31 72 15 0 19 -7 19 -40 0 -22 5 -40 10 -40 6 0
10 -9 10 -19 0 -11 6 -21 12 -23 18 -6 -10 -33 -44 -41 -44 -11 -50 -79 -7
-92 34 -11 13 -65 -26 -65 -43 0 -65 -82 -25 -95 11 -3 20 -11 20 -16 0 -5 7
-9 15 -9 8 0 15 -4 15 -10 0 -5 -7 -10 -15 -10 -8 0 -15 5 -15 10 0 6 -16 10
-35 10 -33 0 -35 -2 -35 -35 0 -29 4 -35 21 -35 46 0 70 -72 29 -85 -14 -4
-20 -15 -20 -36 0 -16 5 -29 10 -29 6 0 10 -16 10 -35 0 -19 -4 -35 -10 -35
-5 0 -10 -24 -10 -54 0 -30 -4 -56 -9 -58 -5 -2 -13 -81 -17 -175 -4 -95 -11
-173 -15 -173 -5 0 -9 -34 -9 -75 0 -43 -4 -75 -10 -75 -5 0 -10 -20 -10 -45
0 -25 -4 -45 -10 -45 -5 0 -10 -7 -10 -15 0 -8 -4 -15 -10 -15 -14 0 -12 -37
3 -43 9 -4 9 -8 -2 -15 -9 -6 -15 -40 -19 -101 -2 -50 -9 -91 -13 -91 -5 0 -9
-8 -9 -18 0 -10 -9 -24 -20 -32 -13 -9 -20 -26 -20 -47 0 -18 -4 -33 -10 -33
-5 0 -12 -27 -16 -60 -4 -33 -11 -60 -15 -60 -5 0 -9 -9 -9 -20 0 -11 -4 -20
-10 -20 -15 0 -12 -48 3 -53 7 -2 8 -8 3 -13 -5 -5 -11 -4 -13 4 -9 23 -23 12
-23 -18 0 -16 -4 -30 -10 -30 -5 0 -10 -15 -10 -34 0 -19 -7 -41 -15 -50 -9
-8 -15 -33 -15 -57 0 -28 -6 -47 -19 -58 -11 -10 -21 -37 -26 -69 -4 -28 -11
-52 -16 -52 -5 0 -9 -9 -9 -19 0 -11 -9 -23 -20 -26 -11 -3 -20 -15 -20 -26 0
-10 -4 -19 -9 -19 -5 0 -13 -10 -17 -22 -4 -13 -15 -30 -25 -39 -11 -9 -19
-21 -19 -28 0 -15 -97 -111 -112 -111 -7 0 -27 -16 -43 -35 -17 -19 -37 -35
-46 -35 -9 0 -19 -7 -23 -15 -3 -8 -15 -15 -26 -15 -11 0 -20 -4 -20 -10 0 -5
-7 -10 -15 -10 -8 0 -15 -4 -15 -10 0 -5 -18 -10 -40 -10 -22 0 -40 -4 -40
-10 0 -5 -22 -10 -50 -10 -27 0 -50 -4 -50 -10 0 -6 -33 -10 -80 -10 -47 0
-80 4 -80 10 0 6 -25 10 -55 10 -30 0 -55 5 -55 10 0 6 -25 10 -55 10 -30 0
-55 5 -55 10 0 6 -9 10 -20 10 -11 0 -20 4 -20 9 0 5 -15 13 -32 17 -18 3 -40
15 -49 25 -9 11 -21 19 -28 19 -6 0 -11 5 -11 10 0 6 -9 10 -20 10 -22 0 -31
6 -85 57 -18 18 -46 35 -62 39 -15 4 -35 15 -44 26 -9 10 -19 18 -23 18 -9 0
-56 47 -56 55 0 9 -27 35 -37 35 -5 0 -15 9 -23 20 -8 11 -24 20 -36 20 -13 0
-29 7 -38 15 -8 8 -22 15 -30 15 -9 0 -16 4 -16 8 0 19 -37 50 -68 56 -17 4
-32 12 -32 17 0 5 -9 9 -20 9 -11 0 -20 5 -20 10 0 6 -9 10 -20 10 -11 0 -20
5 -20 10 0 6 -7 10 -15 10 -8 0 -15 4 -15 9 0 5 -16 12 -35 15 -19 4 -35 11
-35 16 0 6 -25 10 -55 10 -30 0 -55 5 -55 10 0 6 -9 10 -19 10 -11 0 -21 4
-23 9 -2 6 -65 13 -140 17 -76 4 -138 11 -138 15 0 5 -25 9 -55 9 -30 0 -55 5
-55 10 0 6 -105 10 -295 10 -190 0 -295 4 -295 10 0 7 -147 10 -420 10 -367 0
-420 2 -420 15 0 11 12 15 45 15 25 0 45 5 45 10 0 6 16 10 35 10 19 0 35 5
35 10 0 6 7 10 15 10 8 0 15 5 15 10 0 6 14 10 30 10 17 0 30 4 30 10 0 5 16
12 35 16 19 3 35 10 35 15 0 5 9 9 20 9 11 0 20 4 20 10 0 10 36 48 69 70 11
8 21 23 21 33 0 9 7 20 15 23 8 4 15 15 15 25 0 10 5 19 10 19 6 0 10 9 10 20
0 11 4 20 9 20 5 0 12 20 15 45 4 25 11 45 17 45 5 0 9 16 9 35 0 19 5 35 10
35 6 0 10 42 10 105 0 63 -4 105 -10 105 -5 0 -10 7 -10 15 0 9 -5 22 -12 29
-10 11 -15 11 -25 0 -7 -7 -13 -20 -13 -28 0 -9 -4 -16 -10 -16 -5 0 -10 -11
-10 -25 0 -14 -4 -25 -9 -25 -5 0 -12 -20 -15 -45 -4 -25 -11 -45 -17 -45 -5
0 -9 -9 -9 -20 0 -11 -4 -20 -10 -20 -5 0 -10 -7 -10 -15 0 -8 -4 -15 -10 -15
-5 0 -10 -7 -10 -16 0 -25 -116 -134 -150 -141 -17 -3 -30 -9 -30 -14 0 -5 -7
-9 -15 -9 -8 0 -15 -4 -15 -10 0 -5 -13 -10 -30 -10 -16 0 -30 -4 -30 -10 0
-5 -6 -10 -14 -10 -8 0 -16 -4 -18 -10 -1 -5 -42 -13 -90 -16 -49 -4 -88 -11
-88 -15 0 -5 -56 -9 -125 -9 -69 0 -125 4 -125 9 0 4 -39 11 -87 15 -49 3 -89
11 -91 16 -2 6 -17 10 -33 10 -16 0 -29 5 -29 10 0 6 -11 10 -25 10 -14 0 -25
5 -25 10 0 6 -9 10 -20 10 -11 0 -20 4 -20 10 0 5 -16 12 -35 16 -19 3 -35 10
-35 15 0 5 -5 9 -11 9 -6 0 -24 14 -39 30 -15 17 -33 30 -38 30 -21 0 -92 80
-98 109 -4 17 -10 31 -15 31 -5 0 -9 9 -9 20 0 11 -4 20 -10 20 -5 0 -10 11
-10 25 0 14 -4 25 -10 25 -5 0 -10 11 -10 25 0 14 -4 25 -10 25 -5 0 -10 10
-10 23 -1 63 -25 84 -58 50 -15 -14 -17 -37 -15 -157 1 -87 6 -142 13 -144 5
-2 10 -15 10 -28 0 -13 5 -24 10 -24 6 0 10 -9 10 -20 0 -11 4 -20 9 -20 5 0
12 -16 15 -35 4 -19 11 -35 16 -35 6 0 10 -9 10 -20 0 -11 5 -20 10 -20 6 0
10 -5 10 -10 0 -6 10 -22 23 -35 12 -13 28 -31 35 -40 7 -8 22 -15 32 -15 11
0 20 -4 20 -10 0 -5 7 -10 15 -10 8 0 15 -4 15 -10 0 -5 8 -10 18 -10 10 0 24
-9 32 -20 8 -11 29 -23 47 -26 18 -3 33 -10 33 -15 0 -5 7 -9 15 -9 17 0 18
-2 9 -24 -10 -25 -105 -22 -124 4 -13 18 -26 20 -147 20 -73 0 -133 4 -133 9
0 4 -30 11 -67 14 -38 4 -69 11 -71 17 -2 6 -48 10 -113 10 -66 0 -109 4 -109
10 0 6 -22 10 -50 10 -27 0 -50 5 -50 10 0 6 -28 10 -65 10 -36 0 -65 4 -65 9
0 5 -59 11 -132 12 -94 3 -133 8 -136 17 -2 8 -28 12 -83 12 -46 0 -79 4 -79
10 0 15 -157 13 -164 -2 -5 -10 -7 -10 -12 0 -7 14 -94 17 -94 2 0 -5 -22 -10
-49 -10 -28 0 -51 -5 -53 -11 -2 -7 -36 -14 -81 -17 -42 -2 -77 -9 -77 -13 0
-5 -13 -9 -30 -9 -16 0 -30 -4 -30 -10 0 -5 -7 -10 -15 -10 -8 0 -15 -4 -15
-10 0 -5 -18 -10 -40 -10 -22 0 -40 -4 -40 -10 0 -5 -16 -12 -35 -16 -19 -3
-35 -10 -35 -15 0 -5 -7 -9 -15 -9 -8 0 -15 -4 -15 -10 0 -5 -9 -10 -20 -10
-11 0 -20 -4 -20 -10 0 -5 -7 -10 -15 -10 -8 0 -15 -4 -15 -9 0 -5 -18 -12
-40 -16 -22 -4 -40 -11 -40 -16 0 -5 -7 -9 -15 -9 -8 0 -15 -4 -15 -10 0 -5
-9 -10 -20 -10 -11 0 -20 -4 -20 -10 0 -5 -7 -10 -15 -10 -8 0 -15 -4 -15 -9
0 -5 -18 -12 -40 -16 -22 -4 -40 -11 -40 -16 0 -5 -7 -9 -15 -9 -8 0 -15 -4
-15 -10 0 -5 -9 -10 -20 -10 -11 0 -20 -4 -20 -9 0 -5 -15 -13 -32 -17 -18 -3
-40 -15 -49 -25 -12 -14 -30 -19 -63 -19 -25 0 -46 -4 -46 -10 0 -6 -32 -10
-75 -10 -43 0 -75 -4 -75 -10 0 -6 -33 -10 -80 -10 -47 0 -80 4 -80 10 0 6
-16 10 -35 10 -19 0 -35 5 -35 10 0 6 -20 10 -45 10 -25 0 -45 5 -45 10 0 6
-16 10 -35 10 -19 0 -35 4 -35 9 0 5 -16 12 -35 15 -19 4 -35 11 -35 16 0 6
-7 10 -15 10 -9 0 -35 20 -59 45 -25 25 -51 45 -59 45 -9 0 -19 9 -22 20 -3
11 -10 20 -15 20 -13 0 -100 92 -100 106 0 3 -14 19 -30 34 -17 16 -33 42 -36
59 -4 17 -10 31 -15 31 -5 0 -9 7 -9 15 0 8 -4 15 -10 15 -5 0 -10 14 -10 30
0 17 -4 30 -10 30 -5 0 -12 16 -16 35 -3 19 -10 35 -15 35 -5 0 -9 11 -9 25 0
14 -4 25 -10 25 -5 0 -10 9 -10 20 0 11 -4 20 -10 20 -5 0 -10 25 -10 55 0 30
-4 55 -9 55 -5 0 -12 11 -15 25 -4 14 -11 25 -16 25 -6 0 -10 29 -10 65 0 37
-4 65 -10 65 -5 0 -10 20 -10 45 0 25 -4 45 -10 45 -5 0 -10 11 -10 25 0 14
-4 25 -8 25 -5 0 -12 75 -16 168 -4 92 -11 168 -16 170 -13 5 -13 42 0 42 6 0
10 7 10 15 0 8 -4 15 -10 15 -6 0 -10 48 -10 125 0 77 -4 125 -10 125 -6 0
-10 43 -10 110 0 109 0 110 -26 116 -24 6 -25 9 -23 68 2 33 2 82 1 109 -2 40
-5 47 -22 47 -19 0 -20 7 -20 150 0 93 4 150 10 150 6 0 10 18 10 40 0 22 5
40 10 40 6 0 10 33 10 80 0 47 -4 80 -10 80 -6 0 -10 35 -10 85 0 79 2 88 25
109 20 19 25 33 25 70 0 29 -6 53 -15 62 -8 9 -15 31 -15 50 0 24 5 34 15 34
13 0 15 34 15 250 0 139 -4 250 -9 250 -5 0 -12 20 -15 45 -4 25 -11 45 -17
45 -5 0 -9 20 -9 45 0 25 -4 45 -10 45 -5 0 -10 20 -10 45 0 37 3 45 19 45 27
0 31 18 31 141 0 60 2 109 5 109 3 0 17 -11 30 -25z m9375 -505 c0 -5 -4 -10
-10 -10 -5 0 -10 5 -10 10 0 6 5 10 10 10 6 0 10 -4 10 -10z m0 -125 c0 -37
-4 -65 -10 -65 -5 0 -10 -11 -10 -25 0 -22 -4 -25 -35 -25 -19 0 -35 -4 -35
-10 0 -5 -9 -10 -19 -10 -11 0 -21 -4 -23 -9 -1 -5 -19 -11 -38 -15 -19 -3
-29 -3 -22 0 6 3 12 14 12 25 0 10 5 19 10 19 6 0 22 11 36 25 14 14 29 25 35
25 18 0 59 49 59 70 0 11 5 20 10 20 6 0 10 9 10 20 0 11 5 20 10 20 6 0 10
-28 10 -65z m-200 -205 c0 -11 -4 -20 -10 -20 -5 0 -10 9 -10 20 0 11 5 20 10
20 6 0 10 -9 10 -20z m30 -77 c0 -33 -16 -61 -27 -50 -4 5 -1 13 7 18 11 8 12
12 3 16 -18 7 -16 43 2 43 10 0 15 -10 15 -27z m-70 -741 c0 -11 6 -23 13 -26
10 -5 10 -7 0 -12 -16 -7 -17 -44 -3 -44 6 0 0 -11 -12 -23 -16 -16 -26 -20
-31 -13 -6 8 -10 7 -14 -1 -11 -28 -23 -11 -23 32 0 25 5 45 10 45 6 0 10 14
10 30 0 40 19 62 37 44 7 -7 13 -22 13 -32z m-2012 -1539 c-10 -2 -26 -2 -35
0 -10 3 -2 5 17 5 19 0 27 -2 18 -5z m-2998 -733 c0 -5 -4 -10 -10 -10 -5 0
-10 5 -10 10 0 6 5 10 10 10 6 0 10 -4 10 -10z m-1220 -250 c0 -6 33 -10 79
-10 51 0 81 -4 83 -11 4 -12 19 -12 290 -17 97 -2 107 -4 113 -22 5 -17 15
-20 61 -20 30 0 54 -4 54 -10 0 -6 28 -10 65 -10 36 0 65 -4 65 -10 0 -5 16
-12 35 -16 19 -3 35 -10 35 -15 0 -5 25 -9 55 -9 30 0 55 -4 55 -10 0 -5 6
-10 13 -10 7 0 19 -9 27 -20 11 -16 26 -20 68 -20 38 0 54 -4 58 -15 4 -8 15
-15 25 -15 10 0 19 -4 19 -10 0 -6 28 -10 65 -10 37 0 65 -4 65 -10 0 -5 7
-10 15 -10 8 0 15 -4 15 -10 0 -6 63 -10 170 -10 107 0 170 4 170 10 0 6 25
10 55 10 30 0 55 5 55 10 0 6 37 10 90 10 53 0 90 4 90 10 0 6 6 10 14 10 8 0
16 4 18 10 2 5 51 12 111 16 59 4 107 11 107 15 0 5 122 9 270 9 149 0 270 -4
270 -9 0 -4 77 -10 172 -13 116 -4 173 -9 176 -17 2 -6 21 -11 43 -11 21 0 39
-4 39 -10 0 -6 30 -10 70 -10 40 0 70 -4 70 -10 0 -5 20 -10 44 -10 24 0 46
-5 48 -11 2 -5 22 -13 46 -16 23 -3 42 -10 42 -14 0 -5 7 -9 15 -9 8 0 15 -4
15 -10 0 -5 -7 -10 -15 -10 -8 0 -15 -4 -15 -10 0 -5 -16 -10 -35 -10 -19 0
-35 5 -35 10 0 6 -33 10 -80 10 -47 0 -80 4 -80 10 0 6 -81 10 -224 10 -162 0
-225 3 -228 12 -6 17 -490 18 -495 1 -3 -9 -28 -13 -79 -13 -41 0 -74 -4 -74
-9 0 -20 -33 -41 -66 -41 -19 0 -34 -4 -34 -10 0 -6 -32 -10 -75 -10 -43 0
-75 -4 -75 -10 0 -5 -16 -10 -35 -10 -19 0 -35 -4 -35 -10 0 -5 -11 -10 -25
-10 -18 0 -25 5 -25 20 0 16 -7 20 -30 20 -16 0 -30 -4 -30 -10 0 -6 -45 -10
-115 -10 -70 0 -115 4 -115 10 0 6 -75 10 -205 10 -118 0 -205 4 -205 9 0 5
-45 13 -100 16 -55 4 -100 11 -100 16 0 5 -36 9 -80 9 -47 0 -80 4 -80 10 0 6
-6 10 -14 10 -8 0 -16 5 -18 12 -2 6 -37 13 -86 16 -75 4 -82 6 -83 26 0 11
-3 15 -6 9 -8 -20 -23 -15 -23 7 0 11 7 20 15 20 8 0 15 5 15 10 0 6 14 10 30
10 20 0 30 5 30 15 0 10 -10 15 -30 15 -16 0 -30 -4 -30 -10 0 -5 -7 -10 -15
-10 -8 0 -15 5 -15 10 0 6 -20 10 -45 10 -25 0 -45 5 -45 10 0 6 -13 10 -30
10 -16 0 -30 5 -30 10 0 6 -22 10 -50 10 -27 0 -50 4 -50 8 0 5 -100 12 -222
15 -139 4 -224 10 -226 17 -2 6 -37 10 -83 10 -46 0 -79 4 -79 10 0 6 -20 10
-45 10 -25 0 -45 5 -45 10 0 6 -20 10 -45 10 -47 0 -56 11 -31 36 10 10 38 14
90 14 44 0 76 4 76 10 0 6 60 10 160 10 100 0 160 -4 160 -10z m-700 -169 c0
-23 4 -41 8 -41 21 0 49 -38 55 -75 4 -22 11 -41 17 -43 5 -2 10 -12 10 -23 0
-10 5 -19 10 -19 6 0 10 -7 10 -15 0 -8 5 -15 10 -15 6 0 10 -13 10 -29 0 -16
6 -31 15 -35 8 -3 15 -15 15 -26 0 -11 5 -20 10 -20 6 0 10 -11 10 -25 0 -14
5 -25 10 -25 6 0 10 -8 10 -18 0 -10 9 -24 20 -32 10 -8 22 -28 26 -44 4 -17
15 -38 25 -47 11 -9 19 -21 19 -28 0 -6 5 -11 10 -11 6 0 10 -9 10 -20 0 -10
7 -25 16 -32 40 -34 84 -80 84 -89 0 -14 348 -359 363 -359 7 0 19 -9 27 -20
8 -11 18 -20 23 -20 4 0 19 -10 32 -22 37 -35 54 -48 61 -48 3 0 19 -13 34
-30 15 -16 35 -30 44 -30 9 0 19 -7 22 -15 4 -8 15 -15 25 -15 10 0 19 -4 19
-10 0 -5 7 -10 15 -10 8 0 15 -4 15 -9 0 -5 18 -12 40 -16 22 -4 40 -10 40
-14 0 -15 38 -51 53 -51 8 0 17 -4 19 -9 5 -14 42 -21 58 -11 12 7 11 12 -8
28 -12 11 -22 26 -22 34 0 8 -11 24 -25 34 -14 10 -25 27 -25 36 0 10 -4 18
-10 18 -5 0 -10 7 -10 15 0 8 5 15 10 15 6 0 10 9 10 20 0 19 7 20 160 20 100
0 160 -4 160 -10 0 -6 37 -10 90 -10 53 0 90 -4 90 -10 0 -6 28 -10 65 -10 36
0 65 -4 65 -9 0 -5 43 -12 95 -16 52 -4 95 -11 95 -16 0 -5 50 -9 110 -9 67 0
110 4 110 10 0 6 40 10 100 10 60 0 100 -4 100 -10 0 -6 53 -10 140 -10 87 0
140 -4 140 -10 0 -6 43 -10 110 -10 61 0 110 -4 110 -9 0 -5 20 -12 45 -15
l45 -7 0 -50 c0 -52 -15 -79 -44 -79 -8 0 -17 -9 -21 -19 -3 -11 -15 -23 -26
-26 -10 -4 -19 -11 -19 -16 0 -5 -9 -9 -20 -9 -11 0 -20 -4 -20 -9 0 -5 -7
-17 -16 -26 -9 -9 -13 -19 -9 -23 11 -11 99 -6 103 7 2 6 10 11 18 11 8 0 14
5 14 10 0 6 20 10 45 10 25 0 45 5 45 10 0 6 9 10 19 10 11 0 21 5 23 11 2 5
22 13 46 16 23 3 42 10 42 14 0 5 7 9 15 9 8 0 15 5 15 10 0 6 9 10 20 10 11
0 20 5 20 10 0 6 5 10 11 10 6 0 17 7 25 15 9 8 26 15 40 15 13 0 24 5 24 10
0 6 8 10 18 10 10 0 24 9 32 20 8 11 20 20 27 20 7 0 13 5 13 10 0 6 9 10 19
10 11 0 26 7 35 15 8 8 22 15 31 15 9 0 27 11 41 25 14 14 31 25 39 25 8 0 15
5 15 10 0 6 7 10 15 10 20 0 60 40 69 68 4 13 16 22 27 22 10 0 19 5 19 10 0
6 5 10 11 10 7 0 19 8 28 18 9 11 28 22 44 26 15 3 27 11 27 16 0 5 16 25 36
44 20 18 41 39 48 45 6 7 21 22 34 34 12 12 32 32 45 44 29 29 47 51 47 58 0
3 11 17 25 31 14 14 25 34 25 44 0 11 5 20 10 20 6 0 10 7 10 15 0 8 5 15 10
15 6 0 10 9 10 20 0 11 5 20 10 20 6 0 10 7 10 15 0 8 5 15 10 15 6 0 10 9 10
20 0 10 11 30 25 44 14 14 25 32 25 41 0 9 16 31 35 49 19 19 35 40 35 47 0 8
9 21 20 29 11 8 20 20 20 27 0 7 5 13 10 13 6 0 10 16 10 35 0 23 5 35 14 35
23 0 73 -54 80 -86 4 -17 16 -36 26 -44 11 -8 20 -22 20 -32 0 -10 4 -18 9
-18 5 0 13 -26 17 -57 4 -37 14 -64 25 -74 17 -15 19 -35 19 -238 0 -141 -4
-221 -10 -221 -5 0 -10 -7 -10 -15 0 -8 -4 -15 -9 -15 -5 0 -12 -24 -15 -53
-5 -36 -13 -58 -26 -67 -11 -8 -20 -20 -20 -27 0 -7 -4 -13 -10 -13 -5 0 -10
-14 -10 -30 0 -18 -6 -33 -15 -36 -8 -4 -15 -15 -15 -25 0 -10 -4 -19 -10 -19
-5 0 -10 -10 -10 -21 0 -12 -8 -29 -18 -38 -11 -9 -22 -33 -25 -54 -4 -28 -18
-49 -51 -81 -26 -24 -46 -50 -46 -59 0 -10 -4 -17 -10 -17 -5 0 -10 -9 -10
-20 0 -11 -4 -20 -10 -20 -5 0 -20 -12 -33 -26 -14 -14 -29 -31 -35 -36 -5 -6
-25 -25 -43 -44 -19 -18 -40 -40 -47 -48 -7 -9 -22 -16 -32 -16 -11 0 -20 -4
-20 -9 0 -14 -56 -71 -70 -71 -7 0 -34 -22 -61 -50 -27 -27 -55 -50 -62 -50
-7 0 -19 -9 -27 -20 -8 -11 -22 -20 -32 -20 -10 0 -18 -4 -18 -10 0 -5 -7 -10
-15 -10 -8 0 -25 -11 -39 -25 -14 -14 -30 -25 -36 -25 -5 0 -10 -4 -10 -10 0
-5 -9 -10 -20 -10 -11 0 -20 -4 -20 -9 0 -5 -10 -13 -22 -17 -13 -4 -35 -20
-49 -35 -15 -16 -32 -29 -38 -29 -6 0 -11 -4 -11 -9 0 -5 -18 -12 -40 -16 -22
-4 -40 -11 -40 -16 0 -5 -7 -9 -15 -9 -8 0 -15 -4 -15 -10 0 -5 -9 -10 -20
-10 -11 0 -20 -4 -20 -10 0 -5 -20 -10 -45 -10 -25 0 -45 -4 -45 -10 0 -5 -16
-12 -35 -16 -19 -3 -35 -10 -35 -15 0 -5 -16 -9 -35 -9 -19 0 -35 -4 -35 -10
0 -6 -28 -10 -65 -10 -37 0 -65 -4 -65 -10 0 -5 -18 -10 -40 -10 -22 0 -40 5
-40 10 0 6 -13 10 -30 10 -16 0 -30 5 -30 10 0 6 -7 10 -15 10 -8 0 -15 4 -15
10 0 5 -12 13 -27 16 -16 4 -35 15 -44 26 -9 10 -21 18 -28 18 -6 0 -11 5 -11
10 0 6 -13 10 -30 10 -16 0 -30 5 -30 10 0 6 -33 10 -80 10 -47 0 -80 -4 -80
-10 0 -6 -65 -10 -175 -10 -96 0 -175 4 -175 9 0 4 -93 10 -207 13 -144 3
-208 8 -211 16 -2 7 -10 12 -18 12 -8 0 -14 5 -14 10 0 6 -33 10 -80 10 -47 0
-80 4 -80 10 0 6 -20 10 -45 10 -25 0 -45 -4 -45 -10 0 -5 -23 -10 -51 -10
-41 0 -56 -5 -71 -22 -19 -22 -26 -23 -181 -22 -115 0 -162 3 -165 12 -2 7
-10 12 -18 12 -8 0 -14 5 -14 10 0 6 -13 10 -29 10 -16 0 -32 6 -34 13 -4 9
-8 8 -16 -3 -7 -10 -11 -11 -11 -2 0 6 -9 12 -20 12 -11 0 -20 4 -20 9 0 5
-16 12 -35 15 -19 4 -35 11 -35 16 0 6 -8 10 -18 10 -10 0 -24 10 -32 21 -26
37 -41 49 -61 49 -10 0 -19 5 -19 10 0 6 -9 10 -21 10 -12 0 -40 20 -65 45
-24 25 -49 45 -56 45 -8 0 -20 9 -28 20 -8 11 -28 23 -46 26 -17 3 -37 15 -45
26 -8 12 -24 30 -37 42 -12 12 -32 31 -45 44 -61 62 -97 98 -159 159 -13 13
-33 33 -45 45 -13 13 -34 33 -48 46 -14 12 -25 32 -25 42 0 11 -4 20 -8 20
-16 0 -52 37 -52 54 0 9 -4 16 -9 16 -5 0 -12 11 -15 25 -4 14 -11 25 -16 25
-6 0 -10 8 -10 18 0 10 -9 24 -20 32 -11 8 -23 29 -26 47 -3 18 -10 33 -15 33
-5 0 -9 7 -9 15 0 8 -4 15 -10 15 -5 0 -10 9 -10 20 0 11 -4 20 -10 20 -5 0
-10 11 -10 25 0 14 -4 25 -10 25 -5 0 -10 15 -10 34 0 19 -7 41 -15 50 -8 8
-15 22 -15 30 0 9 -4 16 -10 16 -5 0 -10 21 -10 46 0 33 -6 51 -18 63 -15 13
-20 37 -26 131 -4 63 -11 117 -16 118 -15 5 -13 139 3 144 8 3 13 38 15 116 2
62 8 112 13 112 5 0 9 9 9 20 0 11 5 20 10 20 6 0 10 7 10 15 0 8 5 15 10 15
6 0 10 9 10 20 0 11 4 20 10 20 5 0 12 11 16 25 3 14 10 25 15 25 5 0 9 13 9
29 0 21 6 32 20 36 11 3 20 11 20 16 0 5 5 9 11 9 15 0 39 26 39 44 0 8 9 18
20 21 11 3 20 11 20 16 0 6 7 4 15 -5 8 -8 15 -32 15 -55z m334 -56 c9 -9 34
-15 65 -15 28 0 51 -4 51 -10 0 -5 20 -10 45 -10 25 0 45 -4 45 -10 0 -5 16
-10 35 -10 19 0 35 -4 35 -9 0 -5 29 -12 65 -16 36 -3 65 -11 65 -16 0 -5 23
-9 50 -9 28 0 50 -4 50 -10 0 -5 20 -10 45 -10 25 0 45 -4 45 -9 0 -4 39 -11
87 -14 50 -3 89 -10 91 -16 2 -7 34 -11 83 -11 46 0 79 -4 79 -10 0 -6 28 -10
65 -10 37 0 65 -4 65 -10 0 -5 11 -10 25 -10 14 0 25 -4 25 -9 0 -5 56 -12
125 -16 69 -4 125 -11 125 -16 0 -5 20 -9 45 -9 25 0 45 -4 45 -10 0 -6 48
-10 125 -10 77 0 125 -4 125 -10 0 -6 47 -10 120 -10 73 0 120 -4 120 -10 0
-6 117 -10 330 -10 213 0 330 4 330 10 0 6 67 10 180 10 113 0 180 -4 180 -10
0 -5 7 -10 15 -10 8 0 15 5 15 10 0 6 62 10 165 10 103 0 165 4 165 10 0 6 57
10 150 10 93 0 150 4 150 10 0 6 11 10 25 10 29 0 35 -31 9 -52 -8 -7 -30 -28
-49 -45 -19 -18 -39 -33 -45 -33 -5 0 -10 -4 -10 -9 0 -5 -15 -12 -33 -15 -18
-3 -39 -15 -47 -26 -8 -11 -25 -20 -37 -20 -13 0 -23 -4 -23 -9 0 -4 -37 -11
-82 -14 -46 -4 -84 -11 -86 -17 -2 -5 -35 -10 -73 -10 -39 0 -69 -4 -69 -10 0
-5 -16 -10 -35 -10 -19 0 -35 -4 -35 -10 0 -6 -43 -10 -109 -10 -79 0 -111 -4
-114 -12 -5 -18 -919 -17 -925 1 -2 7 -30 11 -73 11 -39 0 -69 4 -69 10 0 6
-52 10 -135 10 -83 0 -135 4 -135 10 0 6 -30 10 -69 10 -39 0 -71 5 -73 10 -2
6 -50 14 -111 17 -59 3 -107 10 -107 15 0 4 -22 8 -50 8 -27 0 -50 5 -50 10 0
6 -18 10 -40 10 -22 0 -40 4 -40 9 0 5 -40 12 -90 15 -49 4 -90 12 -90 17 0 5
-16 9 -35 9 -19 0 -35 5 -35 10 0 6 -16 10 -35 10 -19 0 -35 5 -35 10 0 6 -16
10 -35 10 -19 0 -35 4 -35 9 0 5 -25 13 -55 16 -30 4 -55 11 -55 16 0 5 -20 9
-45 9 -25 0 -45 5 -45 10 0 6 -7 10 -15 10 -8 0 -15 5 -15 10 0 6 -9 10 -20
10 -11 0 -20 4 -20 10 0 5 -16 12 -35 16 -19 3 -35 10 -35 15 0 5 -9 9 -19 9
-11 0 -23 9 -26 20 -3 11 -15 20 -26 20 -10 0 -19 4 -19 9 0 5 -13 11 -30 14
-32 7 -110 76 -110 99 0 7 -9 20 -20 28 -11 8 -20 20 -20 27 0 18 45 16 64 -2z"/>
<path d="M9720 14390 c0 -5 -22 -10 -50 -10 -27 0 -50 -4 -50 -10 0 -5 -9 -10
-20 -10 -11 0 -20 -4 -20 -9 0 -5 -25 -13 -55 -16 -30 -4 -55 -11 -55 -16 0
-5 -5 -9 -11 -9 -6 0 -24 -13 -39 -30 -15 -16 -33 -30 -39 -30 -5 0 -21 -11
-35 -25 -14 -14 -32 -25 -41 -25 -8 0 -15 -4 -15 -10 0 -5 -7 -10 -15 -10 -8
0 -24 -11 -37 -25 -60 -65 -93 -95 -103 -95 -5 0 -49 -39 -89 -79 -4 -5 -24
-25 -43 -44 -19 -19 -40 -40 -47 -46 -6 -6 -21 -22 -33 -34 -12 -12 -28 -27
-35 -34 -26 -24 -38 -42 -38 -58 0 -8 -4 -15 -10 -15 -5 0 -10 -7 -10 -15 0
-11 12 -15 45 -15 25 0 45 4 45 10 0 5 16 12 35 16 19 3 35 10 35 15 0 5 11 9
25 9 14 0 25 5 25 10 0 6 9 10 20 10 11 0 20 5 20 10 0 6 9 10 20 10 11 0 20
4 20 9 0 5 20 12 45 15 25 4 45 11 45 17 0 5 11 9 25 9 14 0 25 5 25 10 0 6 7
10 15 10 8 0 15 4 15 9 0 6 20 13 45 17 25 3 45 10 45 15 0 5 8 9 18 9 10 0
24 9 32 20 8 11 20 20 27 20 7 0 13 4 13 9 0 6 20 13 45 17 25 3 45 10 45 15
0 5 18 9 40 9 22 0 40 5 40 10 0 6 11 10 25 10 14 0 25 5 25 10 0 6 16 10 35
10 19 0 35 5 35 10 0 6 48 10 125 10 77 0 125 -4 125 -10 0 -6 43 -10 110 -10
67 0 110 -4 110 -10 0 -6 35 -10 85 -10 50 0 85 -4 85 -10 0 -5 20 -10 45 -10
25 0 45 -4 45 -9 0 -4 57 -11 128 -15 70 -4 129 -11 130 -17 2 -5 42 -9 88 -9
49 0 84 -4 84 -10 0 -5 18 -10 40 -10 22 0 40 -4 40 -10 0 -6 35 -10 84 -10
46 0 86 -4 88 -9 2 -5 47 -13 101 -17 l97 -7 0 27 c0 14 -4 26 -9 26 -5 0 -11
10 -13 23 -2 14 -11 23 -25 25 -13 2 -23 8 -23 13 0 5 -16 9 -35 9 -19 0 -35
5 -35 10 0 6 -9 10 -20 10 -11 0 -20 5 -20 10 0 6 -7 10 -15 10 -8 0 -15 4
-15 9 0 4 -19 11 -42 14 -24 3 -44 11 -46 16 -2 6 -12 11 -23 11 -10 0 -19 5
-19 10 0 6 -7 10 -15 10 -8 0 -15 5 -15 10 0 6 -13 10 -29 10 -16 0 -31 5 -33
10 -2 6 -33 13 -71 17 -37 3 -67 10 -67 14 0 5 -16 9 -35 9 -19 0 -35 5 -35
10 0 6 -13 10 -29 10 -16 0 -31 5 -33 11 -2 5 -22 13 -46 16 -23 3 -42 10 -42
14 0 5 -20 9 -45 9 -25 0 -45 5 -45 10 0 6 -16 10 -35 10 -19 0 -35 5 -35 10
0 6 -15 10 -34 10 -19 0 -36 4 -38 10 -1 5 -42 13 -90 16 -49 4 -88 11 -88 15
0 5 -20 9 -45 9 -25 0 -45 5 -45 10 0 6 -22 10 -50 10 -27 0 -50 5 -50 10 0 6
-50 10 -130 10 -80 0 -130 -4 -130 -10z"/>
<path d="M15290 14120 c0 -6 -30 -10 -69 -10 -38 0 -71 -4 -73 -9 -1 -5 -67
-13 -145 -17 -79 -4 -143 -11 -143 -15 0 -5 -20 -9 -45 -9 -25 0 -45 -4 -45
-10 0 -5 -16 -10 -35 -10 -19 0 -35 -4 -35 -10 0 -5 -16 -10 -35 -10 -19 0
-35 -4 -35 -9 0 -5 -40 -12 -90 -16 -49 -4 -90 -11 -90 -16 0 -5 -16 -9 -35
-9 -19 0 -35 -4 -35 -10 0 -5 -16 -10 -35 -10 -19 0 -35 -4 -35 -10 0 -5 -9
-10 -19 -10 -11 0 -21 -5 -23 -11 -2 -5 -22 -13 -46 -16 -23 -3 -42 -10 -42
-14 0 -5 -11 -9 -25 -9 -14 0 -25 -4 -25 -10 0 -5 -16 -10 -35 -10 -19 0 -35
-4 -35 -9 0 -5 -14 -11 -30 -15 -37 -7 -80 -48 -80 -76 0 -20 3 -20 123 -14
67 4 124 11 125 15 2 5 55 9 118 9 69 0 114 4 114 10 0 6 48 10 125 10 77 0
125 4 125 10 0 6 31 10 74 10 42 0 76 4 78 10 5 16 650 19 655 3 3 -9 26 -13
69 -13 36 0 64 -4 64 -10 0 -5 7 -10 15 -10 8 0 15 -4 15 -10 0 -5 14 -10 30
-10 17 0 30 -4 30 -9 0 -5 17 -11 38 -14 21 -4 44 -15 52 -27 8 -11 20 -20 28
-20 7 0 32 -20 56 -45 25 -25 51 -45 60 -45 9 0 16 -4 16 -10 0 -5 5 -10 11
-10 6 0 17 -7 25 -15 9 -8 24 -15 34 -15 10 0 22 -9 25 -20 3 -11 14 -20 23
-20 10 0 24 -9 32 -20 8 -11 20 -20 27 -20 7 0 23 -11 37 -25 14 -14 28 -25
31 -25 4 0 13 -6 20 -12 35 -32 45 -38 60 -38 8 0 15 -4 15 -8 0 -17 36 -49
62 -55 15 -4 30 -16 33 -27 4 -14 15 -20 36 -20 27 0 29 3 29 35 0 19 -4 35
-10 35 -5 0 -10 9 -10 20 0 11 -4 20 -10 20 -5 0 -10 5 -10 11 0 6 -6 17 -12
24 -30 33 -38 45 -38 55 0 5 -4 10 -10 10 -5 0 -10 7 -10 16 0 9 -8 24 -19 33
-10 9 -21 26 -25 39 -4 12 -12 22 -17 22 -5 0 -9 7 -9 16 0 17 -36 54 -52 54
-4 0 -8 9 -8 20 0 10 -11 30 -25 44 -14 14 -25 28 -25 31 0 3 -11 18 -25 33
-14 15 -29 30 -33 35 -4 4 -17 15 -28 25 -12 9 -23 26 -25 37 -3 11 -13 21
-24 24 -10 2 -32 17 -47 35 -57 64 -72 76 -93 76 -8 0 -15 5 -15 10 0 6 -7 10
-15 10 -8 0 -15 5 -15 10 0 6 -9 10 -20 10 -11 0 -20 4 -20 10 0 5 -27 12 -60
16 -33 4 -60 11 -60 15 0 5 -13 9 -30 9 -16 0 -30 5 -30 10 0 6 -63 10 -170
10 -107 0 -170 -4 -170 -10z"/>
<path d="M10260 13550 c0 -5 14 -10 30 -10 17 0 30 5 30 10 0 6 -13 10 -30 10
-16 0 -30 -4 -30 -10z"/>
<path d="M10550 13510 c0 -5 -9 -10 -20 -10 -11 0 -20 -4 -20 -10 0 -14 -48
-12 -52 2 -3 9 -9 8 -22 -5 -10 -9 -21 -17 -26 -17 -5 0 -12 -9 -15 -20 -3
-11 -15 -20 -26 -20 -10 0 -19 -4 -19 -10 0 -5 -20 -10 -45 -10 l-46 0 25 -25
c19 -18 36 -25 66 -25 22 0 40 5 40 10 0 6 20 10 45 10 41 0 45 2 45 23 0 35
30 63 74 70 48 8 52 12 33 32 -18 17 -37 20 -37 5z"/>
<path d="M10736 13465 c-8 -8 -21 -15 -29 -15 -9 0 -18 -6 -21 -12 -5 -10 -7
-10 -12 -1 -4 9 -13 6 -29 -10 -40 -37 -54 -47 -65 -47 -5 0 -10 -4 -10 -10 0
-5 -9 -10 -20 -10 -13 0 -20 -7 -20 -19 0 -23 32 -31 96 -23 43 5 44 5 44 43
0 29 5 39 20 44 11 3 20 11 20 16 0 5 16 9 35 9 31 0 35 3 35 25 0 28 -20 33
-44 10z"/>
<path d="M10790 13360 c-19 -21 -45 -41 -57 -44 -26 -7 -30 -31 -9 -52 17 -16
36 -19 36 -4 0 6 14 10 30 10 25 0 30 4 30 25 0 13 11 35 25 49 31 32 33 56 3
56 -14 -1 -38 -17 -58 -40z"/>
<path d="M11010 13370 c0 -5 -7 -10 -15 -10 -8 0 -15 -4 -15 -10 0 -5 -13 -10
-30 -10 -20 0 -30 -5 -30 -15 0 -8 -16 -31 -36 -51 -41 -40 -35 -54 24 -54 26
0 32 4 32 21 0 21 53 79 72 79 15 0 38 27 38 44 0 9 -8 16 -20 16 -11 0 -20
-4 -20 -10z"/>
<path d="M14343 13133 c9 -2 17 -9 17 -14 0 -5 7 -9 16 -9 23 0 54 -38 54 -67
0 -16 6 -23 20 -23 11 0 20 -4 20 -10 0 -17 219 -13 236 4 33 33 18 43 -73 48
-54 3 -88 9 -91 16 -2 7 -10 12 -18 12 -8 0 -14 5 -14 10 0 6 -18 10 -39 10
-22 0 -41 4 -43 8 -1 5 -25 11 -53 14 -27 3 -42 4 -32 1z"/>
<path d="M14130 13075 c0 -8 9 -15 20 -15 11 0 20 -4 20 -10 0 -5 5 -10 11
-10 6 0 17 -6 25 -14 8 -8 14 -19 14 -25 0 -6 9 -20 20 -31 15 -15 33 -20 76
-20 61 0 91 16 68 38 -7 7 -25 12 -39 12 -16 0 -39 13 -61 35 -21 21 -44 35
-59 35 -14 0 -25 5 -25 10 0 6 -16 10 -35 10 -24 0 -35 -5 -35 -15z"/>
<path d="M14000 13024 c0 -17 36 -54 52 -54 4 0 8 -9 8 -20 0 -11 4 -20 9 -20
5 0 13 -9 16 -20 5 -16 15 -20 51 -20 42 0 44 1 44 30 0 20 -5 30 -15 30 -8 0
-15 5 -15 10 0 6 -9 10 -20 10 -11 0 -20 5 -20 11 0 6 -6 17 -14 25 -8 8 -19
14 -25 14 -6 0 -11 5 -11 10 0 6 -13 10 -30 10 -21 0 -30 -5 -30 -16z"/>
<path d="M10100 12991 c0 -5 -52 -12 -115 -16 -63 -4 -115 -11 -115 -16 0 -5
-9 -9 -20 -9 -11 0 -20 -4 -20 -10 0 -5 -16 -10 -35 -10 -19 0 -35 -4 -35 -10
0 -5 -11 -10 -25 -10 -14 0 -25 -4 -25 -9 0 -6 -20 -13 -45 -17 -25 -3 -45
-10 -45 -15 0 -5 -9 -9 -20 -9 -11 0 -20 -4 -20 -10 0 -5 -10 -10 -21 -10 -12
0 -29 -8 -38 -19 -9 -10 -30 -21 -47 -25 -16 -4 -36 -16 -44 -26 -8 -11 -22
-20 -32 -20 -10 0 -18 -4 -18 -10 0 -5 -5 -10 -11 -10 -6 0 -17 -7 -25 -15 -9
-8 -24 -15 -34 -15 -10 0 -22 -9 -25 -20 -3 -11 -15 -20 -26 -20 -10 0 -19 -4
-19 -10 0 -5 -11 -12 -25 -16 -14 -3 -25 -10 -25 -15 0 -5 -8 -9 -18 -9 -10 0
-24 -10 -32 -21 -8 -12 -21 -27 -28 -33 -7 -6 -19 -17 -27 -23 -7 -7 -20 -13
-29 -13 -8 0 -18 -9 -21 -20 -3 -11 -11 -20 -16 -20 -5 0 -9 -7 -9 -15 0 -8
-4 -15 -10 -15 -5 0 -10 -25 -10 -55 0 -30 -4 -55 -10 -55 -5 0 -10 -9 -10
-20 0 -11 -4 -20 -10 -20 -5 0 -10 -7 -10 -15 0 -8 -11 -25 -25 -39 -14 -14
-25 -30 -25 -36 0 -5 -4 -10 -9 -10 -4 0 -11 -33 -15 -72 -4 -40 -11 -74 -16
-76 -6 -2 -10 -10 -10 -18 0 -8 -4 -14 -10 -14 -5 0 -10 -9 -10 -20 0 -11 -4
-20 -10 -20 -5 0 -10 -9 -10 -19 0 -11 -5 -21 -12 -23 -7 -3 -14 -32 -16 -71
-4 -67 -4 -67 22 -67 19 0 26 5 26 20 0 11 5 20 10 20 6 0 10 11 10 25 0 14 5
25 10 25 6 0 10 8 10 19 0 10 11 27 25 37 14 10 25 27 25 36 0 10 5 18 10 18
6 0 10 7 10 15 0 8 11 25 25 39 14 14 25 32 25 41 0 8 9 15 19 15 12 0 21 9
25 25 4 14 11 25 16 25 6 0 10 9 10 20 0 11 4 20 8 20 17 0 49 36 56 63 3 15
11 27 16 27 8 0 122 112 158 154 7 9 21 16 30 16 10 0 24 10 32 21 28 41 61
69 80 69 11 0 20 5 20 10 0 6 6 10 13 10 7 0 19 9 27 20 8 11 20 20 28 20 7 0
23 11 36 25 13 14 31 25 40 25 9 0 16 5 16 10 0 6 5 10 11 10 6 0 17 7 25 15
9 8 25 15 38 15 12 0 28 9 36 20 8 11 22 20 32 20 10 0 18 5 18 10 0 6 11 10
25 10 14 0 25 4 25 9 0 5 16 12 35 15 19 4 35 11 35 16 0 6 19 10 43 10 31 0
46 5 57 20 11 16 26 20 67 20 29 0 53 5 53 10 0 6 72 10 195 10 123 0 195 -4
195 -10 0 -5 13 -10 29 -10 21 0 32 -6 36 -20 5 -16 15 -20 46 -20 21 0 39 -4
39 -10 0 -5 15 -10 34 -10 19 0 41 -7 50 -15 8 -8 28 -15 45 -15 17 0 31 -4
31 -10 0 -5 7 -10 15 -10 8 0 15 -9 15 -20 0 -15 9 -22 30 -26 17 -4 30 -10
30 -15 0 -5 7 -9 15 -9 8 0 15 -4 15 -10 0 -5 7 -10 16 -10 18 0 234 -215 234
-233 0 -7 9 -19 20 -27 11 -8 20 -20 20 -27 0 -7 4 -13 9 -13 5 0 12 -16 15
-35 4 -19 11 -35 16 -35 6 0 10 -8 10 -18 0 -10 9 -24 20 -32 15 -11 20 -26
20 -57 0 -24 4 -43 10 -43 5 0 12 -11 16 -25 3 -14 10 -25 15 -25 5 0 9 -16 9
-35 0 -19 5 -35 10 -35 6 0 10 -13 10 -30 0 -16 5 -30 10 -30 6 0 10 -16 10
-35 0 -19 4 -35 10 -35 5 0 12 -16 16 -35 14 -76 24 -28 24 115 0 84 -4 150
-9 150 -5 0 -12 18 -16 40 -4 22 -11 40 -16 40 -5 0 -9 11 -9 25 0 14 -4 25
-10 25 -5 0 -10 9 -10 19 0 11 -9 23 -20 26 -12 4 -23 18 -27 36 -3 16 -14 31
-24 34 -11 4 -19 14 -19 23 0 10 -9 24 -20 32 -11 8 -20 20 -20 27 0 7 -16 28
-35 47 -19 20 -35 38 -35 41 0 9 -19 30 -92 103 -77 77 -94 92 -105 92 -5 0
-15 9 -23 20 -8 11 -22 20 -31 20 -9 0 -19 7 -23 15 -3 8 -14 15 -23 15 -10 0
-25 9 -33 20 -8 11 -20 20 -27 20 -7 0 -13 5 -13 10 0 6 -9 10 -19 10 -11 0
-21 5 -23 11 -2 6 -27 14 -56 17 -29 2 -52 8 -52 13 0 5 -7 9 -15 9 -8 0 -15
5 -15 10 0 6 -13 10 -30 10 -16 0 -30 5 -30 10 0 6 -15 10 -34 10 -19 0 -36 5
-38 11 -3 8 -65 13 -186 17 -100 3 -182 9 -182 13 0 5 -9 9 -20 9 -11 0 -20
-4 -20 -9z"/>
<path d="M10033 12703 c-13 -2 -23 -9 -23 -14 0 -5 -25 -9 -55 -9 -30 0 -55
-4 -55 -10 0 -5 -7 -10 -15 -10 -8 0 -15 -4 -15 -9 0 -5 -16 -12 -35 -15 -19
-4 -35 -11 -35 -16 0 -6 -7 -10 -15 -10 -16 0 -145 -125 -145 -140 0 -5 -9
-12 -20 -15 -11 -3 -20 -14 -20 -23 0 -10 -9 -24 -20 -32 -11 -8 -20 -20 -20
-27 0 -7 -11 -23 -25 -37 -14 -14 -25 -30 -25 -36 0 -5 -4 -10 -10 -10 -5 0
-10 -9 -10 -20 0 -11 -4 -20 -9 -20 -5 0 -12 -16 -15 -35 -4 -19 -11 -35 -16
-35 -15 0 -13 -397 2 -402 6 -2 13 -30 16 -61 2 -31 8 -57 13 -57 5 0 9 -13 9
-29 0 -21 6 -32 20 -36 11 -3 20 -13 20 -21 0 -33 27 -44 109 -44 74 0 81 2
81 20 0 11 -7 20 -15 20 -8 0 -15 4 -15 9 0 5 -10 11 -22 13 -15 2 -24 11 -26
26 -2 12 -8 22 -13 22 -5 0 -9 11 -9 25 0 14 -4 25 -10 25 -5 0 -10 25 -10 55
0 30 -4 55 -10 55 -6 0 -10 28 -10 65 0 37 4 65 10 65 6 0 10 27 10 60 0 33 4
60 10 60 6 0 10 14 10 30 0 17 5 30 10 30 6 0 10 6 10 13 0 6 4 18 9 26 8 12
12 12 25 -2 17 -17 22 -77 6 -77 -5 0 -10 -20 -10 -45 0 -25 -4 -45 -10 -45
-5 0 -10 -16 -10 -35 0 -19 5 -35 10 -35 6 0 10 -20 10 -45 0 -25 5 -45 10
-45 6 0 10 -11 10 -25 0 -14 5 -25 10 -25 6 0 10 -13 10 -29 0 -16 7 -36 15
-45 8 -8 15 -18 15 -23 0 -5 9 -15 20 -23 11 -8 20 -22 20 -31 0 -9 7 -19 15
-23 8 -3 15 -15 15 -26 0 -13 7 -20 20 -20 11 0 20 -4 20 -9 0 -5 16 -12 35
-15 19 -4 35 -11 35 -16 0 -6 16 -10 35 -10 19 0 35 -4 35 -10 0 -5 16 -10 35
-10 19 0 35 -4 35 -10 0 -6 28 -10 64 -10 40 0 66 -4 68 -12 6 -16 190 -17
196 0 2 7 10 12 18 12 8 0 14 5 14 10 0 6 7 10 16 10 9 0 24 8 33 19 9 10 26
21 39 25 12 4 22 12 22 17 0 5 9 9 20 9 12 0 20 7 20 16 0 9 23 38 50 65 28
27 50 56 50 64 0 8 5 15 10 15 6 0 10 9 10 20 0 11 5 20 10 20 6 0 10 11 10
25 0 14 5 25 10 25 6 0 10 14 10 30 0 17 5 30 10 30 6 0 10 38 10 95 0 57 -4
95 -10 95 -5 0 -10 16 -10 35 0 19 -4 35 -10 35 -5 0 -10 14 -10 30 0 17 -4
30 -10 30 -5 0 -10 6 -10 14 0 8 -4 16 -8 18 -5 2 -12 22 -15 45 -7 39 -6 41
16 35 25 -6 97 -80 97 -99 0 -5 9 -15 20 -23 11 -8 22 -31 26 -57 3 -24 10
-43 15 -43 5 0 9 -16 9 -35 0 -19 5 -35 10 -35 6 0 10 -20 10 -45 0 -25 5 -45
10 -45 6 0 10 -45 10 -115 0 -63 4 -115 9 -115 35 0 41 13 41 86 0 43 4 74 10
74 6 0 10 30 10 70 0 40 4 70 10 70 6 0 10 28 10 65 0 37 -4 65 -10 65 -5 0
-10 20 -10 45 0 25 -4 45 -10 45 -5 0 -10 7 -10 15 0 8 -4 15 -9 15 -5 0 -12
16 -15 35 -4 19 -11 35 -16 35 -6 0 -10 8 -10 18 0 10 -9 24 -20 32 -11 8 -20
18 -20 23 0 8 -12 24 -47 62 -13 13 -23 29 -23 35 0 5 -4 10 -9 10 -5 0 -13 9
-16 20 -3 11 -13 20 -21 20 -20 0 -37 14 -94 79 -14 16 -40 32 -58 36 -18 3
-32 11 -32 16 0 5 -9 9 -20 9 -11 0 -20 5 -20 10 0 6 -6 10 -14 10 -8 0 -16 6
-18 13 -4 9 -57 12 -214 14 -115 1 -219 -1 -231 -4z m-19 -249 c9 -3 16 -15
16 -25 0 -10 4 -19 9 -19 5 0 12 -9 16 -19 3 -11 15 -23 26 -26 10 -4 19 -15
19 -26 0 -10 5 -19 10 -19 6 0 10 -20 10 -45 0 -25 -4 -45 -10 -45 -5 0 -10
-6 -10 -13 0 -7 -9 -19 -20 -27 -11 -8 -20 -22 -20 -32 0 -10 -5 -18 -10 -18
-10 0 -22 -8 -55 -37 -7 -7 -18 -13 -24 -13 -6 0 -11 -4 -11 -10 0 -18 -62
-11 -79 8 -9 11 -28 22 -43 26 -16 3 -28 11 -28 16 0 6 -5 10 -10 10 -6 0 -26
16 -45 35 -34 33 -35 37 -35 110 0 43 4 75 10 75 6 0 10 5 10 11 0 16 26 39
44 39 9 0 16 4 16 9 0 5 7 17 16 25 11 12 36 16 99 16 46 0 90 -3 99 -6z"/>
<path d="M14553 12633 c-35 -2 -63 -8 -63 -13 0 -6 -20 -10 -45 -10 -25 0 -45
-4 -45 -10 0 -5 -16 -10 -35 -10 -19 0 -35 -4 -35 -10 0 -5 -9 -10 -20 -10
-11 0 -20 -4 -20 -9 0 -5 -25 -13 -55 -16 -30 -4 -55 -11 -55 -16 0 -5 -7 -9
-15 -9 -8 0 -15 -4 -15 -10 0 -5 -7 -10 -16 -10 -9 0 -24 -8 -33 -19 -9 -10
-26 -21 -38 -25 -13 -4 -23 -12 -23 -17 0 -5 -9 -9 -20 -9 -11 0 -20 -4 -20
-10 0 -5 -5 -10 -10 -10 -10 0 -35 -21 -74 -59 -6 -6 -22 -23 -36 -37 -14 -13
-29 -28 -34 -33 -61 -62 -77 -78 -88 -88 -26 -24 -38 -42 -38 -58 0 -8 -4 -15
-10 -15 -17 0 -60 -50 -60 -70 0 -11 -4 -20 -10 -20 -5 0 -10 -6 -10 -13 0 -7
-9 -19 -20 -27 -11 -8 -20 -25 -20 -37 0 -13 -4 -23 -9 -23 -5 0 -12 -16 -15
-35 -4 -19 -11 -35 -16 -35 -6 0 -10 -19 -10 -43 0 -31 -5 -46 -20 -57 -38
-28 -20 -120 23 -120 19 0 27 21 27 69 0 25 6 41 20 51 11 8 20 25 20 37 0 13
5 23 10 23 6 0 10 9 10 20 0 11 4 20 9 20 5 0 12 11 15 25 4 14 11 25 16 25 6
0 10 10 10 23 0 12 9 29 20 37 11 8 20 25 20 37 0 13 5 23 10 23 6 0 10 9 10
20 0 19 28 52 68 79 11 8 23 27 26 42 3 16 14 30 26 34 11 3 20 11 20 16 0 5
5 9 10 9 6 0 26 16 46 35 19 19 39 35 44 35 5 0 12 9 15 20 3 11 13 20 21 20
9 0 22 6 29 13 36 31 46 37 65 37 11 0 20 5 20 10 0 6 9 10 19 10 11 0 22 8
26 19 4 15 19 20 70 26 36 3 65 11 65 16 0 5 7 9 15 9 8 0 15 5 15 10 0 6 25
10 55 10 30 0 55 5 55 10 0 6 15 10 34 10 19 0 36 4 38 10 5 14 241 16 246 1
2 -6 17 -11 33 -11 16 0 29 -4 29 -10 0 -6 36 -10 89 -10 79 0 90 -2 96 -19 4
-14 18 -20 57 -23 29 -3 54 -11 56 -17 2 -6 12 -11 23 -11 10 0 19 -4 19 -10
0 -5 7 -10 15 -10 8 0 15 -4 15 -10 0 -5 9 -10 20 -10 11 0 20 -4 20 -9 0 -5
16 -12 35 -15 19 -4 35 -11 35 -16 0 -6 9 -10 19 -10 11 0 23 -9 26 -20 3 -11
10 -20 15 -20 5 0 20 -11 34 -25 14 -14 30 -25 36 -25 5 0 10 -4 10 -10 0 -5
7 -10 15 -10 16 0 34 -12 58 -38 7 -7 27 -28 46 -46 51 -52 51 -52 87 -90 19
-20 39 -36 43 -36 5 0 12 -18 16 -40 4 -22 11 -40 15 -40 12 0 60 -48 60 -60
0 -5 9 -12 20 -15 11 -3 20 -13 20 -22 0 -9 8 -23 19 -32 10 -9 21 -26 25 -38
4 -13 12 -23 17 -23 5 0 9 -9 9 -20 0 -11 5 -20 10 -20 6 0 10 -7 10 -15 0 -8
5 -15 10 -15 6 0 10 -12 10 -26 0 -16 11 -36 25 -50 14 -13 25 -29 25 -36 0
-8 9 -20 20 -28 11 -8 20 -20 20 -27 0 -7 4 -13 9 -13 4 0 11 -24 14 -52 4
-29 11 -54 17 -56 5 -2 10 -12 10 -23 0 -10 5 -19 10 -19 6 0 10 -20 10 -44 0
-31 5 -46 16 -50 25 -10 34 -7 34 9 0 8 5 15 10 15 6 0 10 25 10 55 0 30 -4
55 -10 55 -5 0 -10 9 -10 19 0 11 -5 21 -11 23 -7 2 -13 42 -17 96 -2 51 -9
92 -13 92 -5 0 -9 13 -9 29 0 21 -6 32 -19 36 -14 4 -22 19 -27 51 -3 24 -10
44 -15 44 -5 0 -9 18 -9 40 0 22 -4 40 -10 40 -5 0 -10 23 -10 50 0 28 -4 50
-10 50 -5 0 -10 9 -10 20 0 11 -4 20 -9 20 -5 0 -13 9 -16 21 -8 24 -140 159
-156 159 -5 0 -20 11 -33 25 -13 14 -30 25 -39 25 -9 0 -18 8 -21 18 -3 10
-16 24 -27 32 -12 8 -32 25 -45 38 -13 12 -26 22 -29 22 -4 0 -13 6 -20 13
-33 29 -45 37 -55 37 -5 0 -10 5 -10 10 0 6 -8 10 -18 10 -10 0 -24 9 -32 20
-8 11 -29 23 -47 26 -18 3 -33 10 -33 15 0 5 -9 9 -20 9 -11 0 -20 5 -20 10 0
6 -7 10 -15 10 -8 0 -15 5 -15 10 0 6 -9 10 -19 10 -11 0 -21 5 -23 11 -2 6
-25 13 -51 16 -26 3 -47 10 -47 14 0 5 -9 9 -20 9 -11 0 -20 5 -20 10 0 6 -9
10 -20 10 -11 0 -20 5 -20 10 0 6 -26 10 -59 10 -33 0 -61 4 -63 9 -3 11 -334
21 -435 14z"/>
<path d="M14608 12363 c-16 -2 -28 -9 -28 -14 0 -5 -16 -9 -35 -9 -19 0 -35
-4 -35 -10 0 -5 -9 -10 -20 -10 -11 0 -20 -4 -20 -9 0 -5 -15 -12 -33 -15 -18
-3 -39 -15 -47 -26 -8 -11 -22 -20 -32 -20 -10 0 -18 -4 -18 -10 0 -5 -5 -10
-10 -10 -17 0 -74 -51 -100 -89 -8 -11 -22 -24 -32 -27 -10 -3 -21 -17 -25
-32 -3 -15 -14 -34 -25 -43 -10 -9 -18 -21 -18 -28 0 -6 -4 -11 -10 -11 -5 0
-10 -9 -10 -20 0 -11 -4 -20 -9 -20 -5 0 -12 -20 -15 -45 -4 -25 -11 -45 -17
-45 -5 0 -9 -7 -9 -15 0 -8 -4 -15 -10 -15 -6 0 -10 -28 -10 -65 0 -37 -4 -65
-10 -65 -5 0 -10 -25 -10 -55 0 -30 -4 -55 -10 -55 -6 0 -10 -33 -10 -80 0
-47 4 -80 10 -80 6 0 10 -7 10 -15 0 -8 5 -15 10 -15 6 0 10 -16 10 -35 0 -19
5 -35 10 -35 6 0 10 -9 10 -20 0 -11 4 -20 9 -20 5 0 12 -15 15 -33 3 -18 15
-39 26 -47 11 -8 20 -22 20 -32 0 -10 5 -18 10 -18 6 0 10 -5 10 -10 0 -11 15
-31 38 -53 7 -7 24 -22 37 -34 25 -24 45 -30 45 -13 0 6 14 10 30 10 17 0 30
5 30 11 0 16 -26 39 -44 39 -9 0 -16 8 -16 19 0 10 -7 21 -15 25 -8 3 -15 15
-15 26 0 11 -4 20 -10 20 -5 0 -10 9 -10 20 0 11 -4 20 -10 20 -5 0 -10 11
-10 24 0 13 -6 26 -12 28 -19 7 -19 439 0 445 6 3 12 14 12 25 0 28 29 56 40
38 10 -17 0 -204 -11 -208 -12 -5 -12 -72 0 -72 4 0 11 -27 15 -60 4 -33 11
-60 16 -60 6 0 10 -9 10 -20 0 -11 5 -20 10 -20 6 0 10 -5 10 -11 0 -7 8 -19
18 -28 11 -9 22 -28 26 -43 3 -16 11 -28 16 -28 12 0 80 -68 80 -80 0 -5 12
-13 28 -16 15 -4 34 -15 43 -26 9 -10 26 -18 38 -18 11 0 21 -4 21 -10 0 -6
60 -10 160 -10 100 0 160 4 160 10 0 6 25 10 55 10 30 0 55 5 55 10 0 6 7 10
15 10 8 0 15 5 15 10 0 6 9 10 19 10 11 0 26 7 35 15 8 8 17 15 21 15 3 0 21
15 40 33 19 17 40 37 47 44 26 24 38 42 38 58 0 8 5 15 10 15 6 0 10 7 10 15
0 8 5 15 10 15 6 0 10 9 10 19 0 11 5 21 11 23 5 2 13 38 16 81 3 42 10 77 14
77 5 0 9 25 9 55 0 30 -4 55 -9 55 -4 0 -11 30 -14 67 -4 38 -11 69 -17 71 -5
2 -10 12 -10 23 0 10 -4 19 -10 19 -5 0 -10 7 -10 15 0 8 -4 15 -10 15 -5 0
-10 7 -10 15 0 9 -11 26 -25 39 -14 13 -25 29 -25 36 0 7 -10 22 -22 33 l-23
20 34 -7 c18 -3 41 -15 51 -26 10 -11 22 -20 29 -20 14 0 91 -76 91 -90 0 -6
11 -21 25 -34 14 -13 25 -31 25 -40 0 -9 5 -16 10 -16 6 0 10 -7 10 -15 0 -8
5 -15 10 -15 6 0 10 -9 10 -19 0 -11 5 -21 10 -23 6 -2 13 -27 17 -56 3 -28
10 -52 14 -52 5 0 9 -36 9 -80 0 -47 4 -80 10 -80 6 0 10 -27 10 -61 0 -52 2
-60 16 -55 9 3 17 6 19 6 2 0 7 20 11 45 3 25 10 45 15 45 5 0 9 63 9 141 0
111 -3 144 -15 155 -8 9 -15 26 -15 40 0 13 -4 24 -10 24 -5 0 -10 20 -10 45
0 25 -4 45 -10 45 -5 0 -10 9 -10 20 0 11 -4 20 -10 20 -5 0 -10 7 -10 15 0 8
-4 15 -9 15 -5 0 -12 19 -16 42 -4 24 -16 50 -26 59 -11 9 -19 23 -19 32 0 9
-9 19 -20 22 -11 3 -20 10 -20 15 0 14 -69 80 -83 80 -7 0 -19 9 -27 20 -8 11
-22 20 -32 20 -9 0 -19 8 -23 19 -4 14 -19 20 -60 26 -30 3 -55 11 -55 16 0 5
-9 9 -20 9 -11 0 -20 5 -20 10 0 6 -11 10 -24 10 -13 0 -26 4 -28 9 -3 9 -335
21 -380 14z m-30 -262 c2 -6 10 -11 18 -11 8 0 14 -8 14 -18 0 -10 9 -24 20
-32 11 -8 20 -20 20 -27 0 -7 5 -13 10 -13 6 0 10 -29 10 -68 0 -56 -3 -70
-20 -82 -11 -8 -20 -20 -20 -27 0 -28 -34 -53 -72 -53 -21 0 -38 -4 -38 -10 0
-5 -20 -10 -45 -10 -25 0 -45 5 -45 10 0 6 -15 10 -32 10 -42 0 -53 8 -62 43
-4 18 -13 27 -26 27 -18 0 -20 7 -20 78 0 71 2 79 25 96 14 10 25 25 25 33 0
19 25 43 44 43 9 0 16 4 16 9 0 22 171 23 178 2z"/>
<path d="M8740 12310 c0 -5 -8 -10 -19 -10 -10 0 -27 -11 -37 -25 -12 -16 -29
-25 -46 -25 -20 0 -27 -6 -30 -22 -2 -13 -11 -24 -23 -27 -11 -2 -27 -12 -36
-22 -9 -11 -21 -19 -28 -19 -6 0 -11 -4 -11 -10 0 -5 -7 -10 -16 -10 -17 0
-114 -93 -114 -110 0 -5 -5 -10 -11 -10 -19 0 -39 -28 -39 -54 0 -14 -4 -26
-10 -26 -5 0 -10 -7 -10 -15 0 -8 9 -15 19 -15 11 0 22 -6 24 -12 4 -10 6 -10
6 0 1 14 41 17 41 2 0 -5 -4 -10 -10 -10 -17 0 -11 -25 10 -40 12 -8 20 -26
20 -42 0 -15 5 -28 10 -28 17 0 60 47 60 65 0 8 4 15 9 15 5 0 12 11 15 25 4
14 11 25 16 25 6 0 10 7 10 15 0 8 5 15 10 15 6 0 10 7 10 16 0 9 8 24 18 33
11 9 22 34 26 56 7 36 37 75 58 75 4 0 8 7 8 15 0 16 12 34 38 58 7 7 27 26
45 44 69 69 73 83 22 83 -19 0 -35 -4 -35 -10z"/>
<path d="M10850 11585 c0 -28 4 -35 20 -35 16 0 20 7 20 35 0 28 -4 35 -20 35
-16 0 -20 -7 -20 -35z"/>
<path d="M7840 12725 c0 -38 3 -45 20 -45 17 0 20 7 20 45 0 38 -3 45 -20 45
-17 0 -20 -7 -20 -45z"/>
<path d="M12058 12703 c6 -2 18 -2 25 0 6 3 1 5 -13 5 -14 0 -19 -2 -12 -5z"/>
<path d="M11690 11630 c0 -5 -7 -10 -15 -10 -18 0 -20 -36 -2 -55 26 -30 37
-44 37 -50 0 -8 51 -58 55 -54 5 6 7 55 6 122 l-1 57 -40 0 c-22 0 -40 -4 -40
-10z"/>
<path d="M7990 11545 c0 -16 6 -25 15 -25 9 0 15 9 15 25 0 16 -6 25 -15 25
-9 0 -15 -9 -15 -25z"/>
<path d="M11640 11470 c0 -5 -9 -10 -20 -10 -14 0 -20 -7 -20 -21 0 -32 25
-49 69 -49 34 0 41 3 41 20 0 11 5 20 10 20 6 0 10 11 10 25 0 23 -4 25 -45
25 -25 0 -45 -4 -45 -10z"/>
<path d="M8110 11210 c0 -11 5 -20 10 -20 6 0 10 9 10 20 0 11 -4 20 -10 20
-5 0 -10 -9 -10 -20z"/>
<path d="M11663 11185 c-13 -13 -23 -33 -23 -45 0 -11 -4 -20 -10 -20 -5 0
-10 -11 -10 -25 0 -14 -4 -25 -9 -25 -4 0 -11 -24 -14 -52 -4 -29 -11 -54 -17
-56 -5 -2 -10 -12 -10 -23 0 -10 -4 -19 -10 -19 -5 0 -10 -7 -10 -15 0 -8 -4
-15 -9 -15 -5 0 -11 -16 -13 -35 -4 -36 -1 -39 26 -29 11 4 16 19 16 45 0 21
5 39 10 39 6 0 10 11 10 24 0 14 7 31 15 40 8 8 15 19 15 25 0 6 5 11 10 11 6
0 10 7 10 16 0 9 9 25 20 34 15 13 22 35 27 84 3 36 4 66 2 65 -2 0 -14 -11
-26 -24z"/>
<path d="M13314 11130 c-4 -16 -10 -30 -15 -30 -5 0 -9 -7 -9 -15 0 -8 4 -15
9 -15 5 0 12 -28 16 -62 4 -34 13 -68 20 -75 21 -20 63 -16 70 7 7 23 -2 60
-16 60 -5 0 -9 25 -9 55 0 46 -4 60 -25 80 -31 32 -34 31 -41 -5z"/>
<path d="M11410 11040 c0 -20 5 -30 15 -30 10 0 15 10 15 30 0 20 -5 30 -15
30 -10 0 -15 -10 -15 -30z"/>
<path d="M8260 10905 c0 -24 5 -35 15 -35 10 0 15 11 15 35 0 24 -5 35 -15 35
-10 0 -15 -11 -15 -35z"/>
<path d="M11293 10895 c-15 -17 -17 -45 -3 -45 6 0 10 5 10 10 0 6 9 10 20 10
13 0 20 7 20 20 0 23 -29 26 -47 5z"/>
<path d="M13406 10821 c-12 -19 7 -41 35 -41 24 0 29 4 29 25 0 21 -5 25 -29
25 -17 0 -32 -4 -35 -9z"/>
<path d="M8330 10759 c0 -26 23 -49 49 -49 25 0 29 34 7 56 -22 22 -56 18 -56
-7z"/>
<path d="M11520 10772 c0 -7 -9 -12 -20 -12 -15 0 -20 -7 -20 -25 0 -14 5 -25
10 -25 6 0 10 7 10 16 0 9 8 23 17 30 10 7 15 16 10 20 -4 4 -7 2 -7 -4z"/>
<path d="M11153 10735 c-7 -8 -13 -25 -13 -39 0 -16 -7 -27 -20 -31 -11 -3
-20 -11 -20 -16 0 -5 -11 -9 -25 -9 -21 0 -25 -5 -25 -30 0 -23 4 -30 20 -30
11 0 20 4 20 10 0 5 23 32 50 59 34 34 50 58 50 75 0 28 -18 33 -37 11z"/>
<path d="M8343 10624 c-18 -18 -16 -82 2 -100 8 -9 15 -25 15 -38 0 -12 9 -28
20 -36 13 -9 20 -26 20 -47 0 -18 5 -33 10 -33 6 0 10 -9 10 -20 0 -11 6 -20
13 -20 10 0 12 15 9 63 -3 34 -8 64 -13 65 -5 2 -9 10 -9 18 0 8 -4 14 -10 14
-5 0 -10 9 -10 20 0 11 -4 20 -10 20 -5 0 -10 16 -10 35 0 19 -4 35 -9 35 -5
0 -11 9 -13 19 -2 16 -5 17 -15 5z"/>
<path d="M16760 10601 c0 -20 18 -31 51 -31 20 0 23 8 13 34 -9 24 -64 21 -64
-3z"/>
<path d="M10940 10520 c0 -5 5 -10 10 -10 6 0 10 5 10 10 0 6 -4 10 -10 10 -5
0 -10 -4 -10 -10z"/>
<path d="M16703 10515 c-17 -19 -16 -43 1 -61 17 -16 36 -19 36 -4 0 6 9 10
20 10 14 0 20 7 20 21 0 42 -51 64 -77 34z"/>
<path d="M11284 10483 c-15 -3 -24 -14 -28 -35 -10 -49 -8 -50 29 -14 32 33
45 58 28 55 -5 -1 -18 -4 -29 -6z"/>
<path d="M10842 10464 c-11 -12 -10 -17 4 -32 13 -12 19 -13 22 -4 2 6 12 12
22 12 15 0 30 18 30 36 0 11 -67 1 -78 -12z"/>
<path d="M10750 10405 c0 -8 7 -15 15 -15 8 0 15 7 15 15 0 8 -7 15 -15 15 -8
0 -15 -7 -15 -15z"/>
<path d="M13520 10405 c0 -8 5 -15 10 -15 6 0 10 7 10 15 0 8 -4 15 -10 15 -5
0 -10 -7 -10 -15z"/>
<path d="M13720 10410 c0 -5 5 -10 10 -10 6 0 10 5 10 10 0 6 -4 10 -10 10 -5
0 -10 -4 -10 -10z"/>
<path d="M16670 10380 c0 -5 5 -10 10 -10 6 0 10 5 10 10 0 6 -4 10 -10 10 -5
0 -10 -4 -10 -10z"/>
<path d="M11170 10360 c0 -5 -5 -10 -11 -10 -11 0 -39 -25 -39 -35 0 -4 -7
-13 -15 -21 -8 -9 -15 -25 -14 -37 0 -12 3 -16 6 -9 2 6 12 12 20 12 17 0 53
37 53 54 0 7 9 18 20 26 11 8 20 18 20 22 0 4 -9 8 -20 8 -11 0 -20 -4 -20
-10z"/>
<path d="M13540 10360 c0 -5 7 -10 15 -10 8 0 15 5 15 10 0 6 -7 10 -15 10 -8
0 -15 -4 -15 -10z"/>
<path d="M16480 10313 c0 -10 4 -14 8 -8 4 6 11 13 16 18 5 4 2 7 -7 7 -10 0
-17 -8 -17 -17z"/>
<path d="M16440 10270 c0 -5 5 -10 10 -10 6 0 10 5 10 10 0 6 -4 10 -10 10 -5
0 -10 -4 -10 -10z"/>
<path d="M16650 10241 c0 -11 -3 -26 -6 -35 -4 -11 -1 -16 10 -16 12 0 16 10
16 35 0 19 -4 35 -10 35 -5 0 -10 -9 -10 -19z"/>
<path d="M16410 10233 c-16 -7 -40 -29 -40 -37 0 -14 23 -4 46 19 25 25 23 29
-6 18z"/>
<path d="M14000 10140 c0 -6 16 -26 35 -45 36 -37 75 -46 75 -19 0 17 -23 44
-38 44 -6 0 -12 4 -14 8 -5 14 -58 24 -58 12z"/>
<path d="M16640 10115 c0 -19 -4 -35 -10 -35 -5 0 -10 -7 -10 -15 0 -8 -4 -15
-10 -15 -5 0 -10 -13 -10 -29 0 -31 20 -45 51 -36 16 6 19 17 19 86 0 64 -3
79 -15 79 -10 0 -15 -11 -15 -35z"/>
<path d="M10828 10053 c7 -3 16 -2 19 1 4 3 -2 6 -13 5 -11 0 -14 -3 -6 -6z"/>
<path d="M14177 10053 c-4 -3 -7 -15 -7 -25 0 -13 7 -18 25 -18 29 0 36 34 9
44 -19 7 -19 7 -27 -1z"/>
<path d="M14470 9889 c0 -16 26 -39 45 -39 9 0 24 7 32 16 14 13 14 17 2 25
-20 12 -79 11 -79 -2z"/>
<path d="M16538 9803 c7 -3 16 -2 19 1 4 3 -2 6 -13 5 -11 0 -14 -3 -6 -6z"/>
<path d="M16420 9645 c0 -18 5 -25 20 -25 15 0 20 7 20 25 0 18 -5 25 -20 25
-15 0 -20 -7 -20 -25z"/>
<path d="M16210 9510 c0 -11 7 -20 15 -20 8 0 15 9 15 20 0 11 -7 20 -15 20
-8 0 -15 -9 -15 -20z"/>
<path d="M15073 9295 c-23 -25 -14 -35 32 -35 25 0 45 4 45 9 0 5 9 13 20 16
37 12 20 25 -32 25 -33 -1 -58 -6 -65 -15z"/>
<path d="M10780 7215 c0 -11 229 -235 240 -235 5 0 27 -18 49 -40 21 -22 44
-40 51 -40 14 0 50 -38 50 -52 0 -4 7 -8 15 -8 15 0 25 -6 60 -37 7 -7 17 -13
22 -13 5 0 15 -9 23 -20 8 -11 22 -20 32 -20 10 0 18 -4 18 -9 0 -5 15 -13 32
-17 18 -3 40 -15 49 -25 9 -11 26 -19 38 -19 11 0 21 -4 21 -10 0 -5 9 -10 19
-10 10 0 21 -7 25 -15 3 -9 18 -15 36 -15 16 0 30 -4 30 -10 0 -5 7 -10 15
-10 8 0 15 -4 15 -10 0 -5 9 -10 20 -10 11 0 20 -4 20 -9 0 -5 25 -13 55 -16
30 -4 55 -11 55 -16 0 -5 16 -9 35 -9 19 0 35 -4 35 -10 0 -5 7 -10 15 -10 8
0 15 5 15 10 0 6 14 10 30 10 56 0 30 18 -35 25 -36 4 -65 11 -65 16 0 5 -7 9
-15 9 -8 0 -15 5 -15 10 0 6 -9 10 -20 10 -11 0 -20 4 -20 9 0 5 -20 12 -45
15 -25 4 -45 11 -45 17 0 5 -9 9 -20 9 -11 0 -20 5 -20 10 0 6 -7 10 -15 10
-8 0 -15 5 -15 10 0 6 -9 10 -21 10 -11 0 -27 7 -35 15 -9 8 -24 15 -35 15
-10 0 -19 5 -19 10 0 6 -7 10 -15 10 -8 0 -15 5 -15 10 0 6 -9 10 -20 10 -11
0 -20 5 -20 10 0 6 -9 10 -20 10 -11 0 -20 5 -20 10 0 6 -7 10 -15 10 -8 0
-25 11 -39 25 -14 14 -28 25 -32 25 -4 0 -14 8 -23 18 -9 11 -28 22 -43 25
-15 4 -30 16 -33 27 -3 11 -13 20 -22 20 -9 0 -30 16 -49 35 -18 19 -39 35
-46 35 -8 0 -20 9 -28 20 -8 11 -20 20 -27 20 -7 0 -28 16 -47 35 -20 19 -38
35 -41 35 -13 0 -85 68 -85 80 0 6 -9 10 -20 10 -11 0 -20 -2 -20 -5z"/>
<path d="M13840 7120 c0 -5 -5 -10 -10 -10 -6 0 -22 -11 -36 -25 -14 -14 -30
-25 -37 -25 -7 0 -19 -9 -27 -20 -8 -11 -22 -20 -32 -20 -10 0 -18 -4 -18 -10
0 -5 -5 -10 -10 -10 -10 0 -22 -8 -55 -37 -7 -7 -21 -13 -29 -13 -9 0 -16 -4
-16 -10 0 -5 -5 -10 -11 -10 -6 0 -17 -7 -25 -15 -9 -8 -24 -15 -34 -15 -10 0
-22 -9 -25 -20 -3 -11 -15 -20 -26 -20 -10 0 -19 -4 -19 -10 0 -5 -5 -10 -11
-10 -6 0 -17 -7 -25 -15 -9 -8 -24 -15 -35 -15 -10 0 -19 -4 -19 -10 0 -5 -6
-10 -13 -10 -7 0 -19 -9 -27 -20 -8 -11 -22 -20 -32 -20 -10 0 -18 -4 -18 -10
0 -5 -11 -10 -24 -10 -14 0 -31 -7 -40 -15 -8 -8 -24 -15 -35 -15 -12 0 -21
-4 -21 -10 0 -5 -9 -10 -20 -10 -11 0 -20 -4 -20 -10 0 -5 -7 -10 -15 -10 -8
0 -15 -4 -15 -9 0 -4 -19 -11 -42 -14 -24 -3 -44 -11 -46 -16 -2 -6 -12 -11
-23 -11 -10 0 -19 -4 -19 -10 0 -5 -20 -10 -45 -10 -25 0 -45 -4 -45 -9 0 -5
-20 -12 -45 -15 -25 -4 -45 -11 -45 -17 0 -5 -20 -9 -45 -9 -25 0 -45 -4 -45
-10 0 -6 -33 -10 -80 -10 -47 0 -80 -4 -80 -10 0 -5 -9 -10 -20 -10 -39 0 -19
-19 27 -26 65 -10 287 2 291 15 2 6 21 11 43 11 21 0 39 5 39 10 0 6 11 10 25
10 14 0 25 5 25 10 0 6 11 10 25 10 14 0 25 4 25 9 0 5 23 11 52 13 29 3 54
11 56 17 2 6 12 11 23 11 10 0 19 5 19 10 0 6 7 10 15 10 8 0 15 4 15 9 0 5
16 12 35 15 19 4 35 11 35 16 0 6 9 10 20 10 11 0 20 5 20 10 0 6 9 10 20 10
11 0 20 5 20 10 0 6 5 10 11 10 6 0 17 7 25 15 9 8 24 15 34 15 10 0 22 9 25
20 3 11 15 20 26 20 10 0 19 5 19 10 0 6 7 10 15 10 8 0 15 4 15 10 0 5 12 13
28 16 26 7 62 39 62 56 0 4 7 8 15 8 15 0 25 6 60 38 7 6 16 12 20 12 3 0 17
11 31 25 14 14 29 25 35 25 10 0 149 135 149 145 0 3 -9 5 -20 5 -11 0 -20 -4
-20 -10z"/>
<path d="M12820 7040 c0 -24 6 -25 26 -6 19 20 18 26 -6 26 -13 0 -20 -7 -20
-20z"/>
<path d="M11940 6534 c0 -3 6 -12 14 -20 17 -16 66 -19 66 -4 0 6 -9 10 -20
10 -11 0 -20 5 -20 10 0 6 -9 10 -20 10 -11 0 -20 -3 -20 -6z"/>
<path d="M17664 10874 c3 -9 6 -18 6 -20 0 -2 9 -4 20 -4 13 0 20 7 20 20 0
15 -7 20 -26 20 -20 0 -25 -4 -20 -16z"/>
<path d="M7270 10790 c0 -16 -4 -30 -10 -30 -5 0 -10 -7 -10 -15 0 -8 5 -15
10 -15 6 0 10 -7 10 -16 0 -15 23 -44 34 -44 3 0 6 9 6 20 0 11 5 20 10 20 6
0 10 11 10 25 0 14 -4 25 -10 25 -5 0 -10 7 -10 16 0 15 -23 44 -34 44 -3 0
-6 -13 -6 -30z"/>
<path d="M7380 10235 c0 -14 5 -25 10 -25 6 0 10 11 10 25 0 14 -4 25 -10 25
-5 0 -10 -11 -10 -25z"/>
<path d="M17390 9995 c0 -8 -4 -15 -10 -15 -17 0 -12 -77 6 -84 25 -10 34 2
34 45 0 21 5 39 10 39 6 0 10 7 10 15 0 9 -9 15 -25 15 -16 0 -25 -6 -25 -15z"/>
<path d="M17326 9784 c-8 -29 1 -64 15 -64 5 0 9 20 9 45 0 49 -14 60 -24 19z"/>
<path d="M17280 9610 c0 -5 5 -10 10 -10 6 0 10 5 10 10 0 6 -4 10 -10 10 -5
0 -10 -4 -10 -10z"/>
<path d="M17230 9440 c0 -11 5 -20 10 -20 6 0 10 9 10 20 0 11 -4 20 -10 20
-5 0 -10 -9 -10 -20z"/>
</g>
</svg>
