<?xml version="1.0" standalone="no"?>
<!DOCTYPE svg PUBLIC "-//W3C//DTD SVG 20010904//EN"
 "http://www.w3.org/TR/2001/REC-SVG-20010904/DTD/svg10.dtd">
<svg version="1.0" xmlns="http://www.w3.org/2000/svg"
 width="976.000000pt" height="976.000000pt" viewBox="0 0 976.000000 976.000000"
 preserveAspectRatio="xMidYMid meet">
<metadata>
Created by potrace 1.14, written by Peter Selinger 2001-2017
</metadata>
<g transform="translate(0.000000,976.000000) scale(0.100000,-0.100000)"
fill="#000000" stroke="none">
<path d="M0 9225 l0 -95 53 -1 c28 0 59 -2 67 -3 8 -2 37 -6 64 -9 78 -10 156
-29 156 -39 0 -5 4 -7 8 -4 11 7 123 -46 170 -81 84 -61 212 -222 212 -266 0
-7 4 -17 9 -22 11 -11 60 -160 67 -202 2 -15 7 -39 10 -53 4 -14 8 -38 9 -55
2 -16 6 -66 11 -110 9 -95 10 -6499 1 -6630 -3 -49 -8 -101 -11 -115 -2 -14
-7 -45 -11 -70 -11 -77 -12 -83 -34 -171 -31 -128 -109 -305 -168 -381 -96
-123 -253 -230 -388 -262 -71 -17 -116 -23 -182 -25 l-43 -1 0 -95 0 -95 1654
0 1653 0 -1 89 c-1 49 -3 92 -6 94 -3 3 -37 8 -75 11 -73 5 -86 7 -187 32 -5
1 -10 3 -13 4 -3 1 -8 3 -12 5 -91 25 -210 100 -294 184 -80 81 -167 221 -204
331 -1 3 -4 12 -8 20 -11 29 -47 155 -52 185 -2 17 -7 40 -9 52 -3 11 -7 43
-11 70 -4 26 -10 59 -13 73 -4 14 -8 1514 -9 3335 -2 3462 -3 3394 38 3555 18
71 50 170 65 199 8 14 14 31 14 38 0 6 4 13 8 15 4 2 20 25 36 51 62 108 192
212 341 272 38 16 51 20 100 30 11 3 31 7 45 11 14 3 39 7 55 10 17 3 41 7 55
10 14 3 77 7 140 10 63 3 120 6 125 8 6 2 10 42 10 92 l0 89 -1723 3 -1722 2
0 -95z"/>
<path d="M7519 9289 c-13 -17 -33 -42 -44 -54 -31 -37 -68 -82 -145 -180 -39
-49 -84 -106 -100 -125 -29 -35 -97 -120 -155 -194 -16 -21 -35 -44 -40 -50
-6 -6 -56 -67 -111 -136 -55 -69 -107 -134 -116 -145 -9 -11 -33 -40 -52 -65
-20 -25 -42 -52 -49 -60 -8 -8 -27 -33 -43 -55 -16 -22 -34 -44 -40 -50 -6 -5
-37 -44 -69 -85 -33 -41 -62 -77 -65 -80 -3 -3 -48 -59 -100 -125 -51 -66
-102 -129 -112 -140 -23 -26 -268 -331 -288 -359 -8 -11 -50 -64 -93 -116 -42
-52 -81 -100 -85 -105 -4 -6 -22 -28 -40 -50 -18 -22 -36 -44 -40 -50 -13 -18
-87 -110 -92 -115 -3 -3 -24 -27 -45 -55 -22 -27 -43 -51 -47 -53 -5 -2 -8 -8
-8 -14 0 -6 -6 -16 -13 -22 -8 -6 -58 -67 -113 -136 -54 -69 -101 -127 -104
-130 -3 -3 -21 -25 -40 -50 -19 -25 -42 -54 -52 -65 -10 -11 -48 -58 -84 -105
-36 -47 -73 -92 -80 -100 -8 -8 -33 -40 -56 -70 -24 -30 -45 -57 -48 -60 -3
-3 -32 -39 -65 -80 -32 -41 -64 -82 -72 -90 -7 -8 -28 -33 -46 -56 -47 -59
-95 -119 -152 -190 -27 -34 -63 -78 -80 -99 -97 -123 -169 -210 -176 -213 -5
-2 -9 -8 -9 -13 0 -8 -24 -39 -55 -73 -6 -6 -31 -38 -55 -71 -25 -33 -50 -64
-56 -70 -6 -5 -87 -111 -179 -235 -93 -124 -173 -228 -179 -232 -6 -4 -8 -8
-3 -8 4 0 -17 -31 -45 -69 -29 -38 -60 -79 -68 -91 -8 -12 -26 -37 -40 -55
-14 -18 -32 -43 -40 -55 -8 -12 -31 -44 -50 -70 -19 -26 -42 -58 -50 -70 -8
-12 -23 -33 -33 -46 -18 -23 -19 -71 -19 -1070 0 -575 2 -1048 5 -1050 4 -4
44 41 132 150 35 44 68 83 93 111 15 16 82 98 172 208 8 10 23 28 33 39 9 12
17 26 17 31 0 6 3 8 6 4 3 -3 22 15 42 41 19 26 39 49 44 50 4 2 8 8 8 12 0 5
10 20 23 33 12 13 36 40 52 60 17 20 44 53 62 74 17 21 89 108 160 193 70 86
140 169 156 185 15 16 27 33 27 36 0 6 25 36 86 101 19 20 34 40 34 44 0 4 11
17 26 30 14 13 22 24 19 24 -3 0 5 11 19 24 15 13 26 26 26 30 0 3 8 14 18 24
9 10 32 37 50 59 19 23 41 51 50 61 10 11 35 41 57 68 22 26 45 52 50 58 6 6
26 31 45 56 19 24 45 55 57 68 12 14 37 44 55 68 18 24 38 44 44 44 6 0 25
-20 43 -45 17 -24 37 -50 44 -58 7 -7 17 -20 22 -29 6 -9 73 -99 149 -200 131
-172 170 -223 372 -487 43 -57 84 -111 89 -120 6 -9 13 -18 16 -21 3 -3 34
-43 69 -90 36 -47 70 -92 77 -100 6 -8 37 -49 67 -90 30 -41 62 -82 69 -90 8
-8 32 -40 53 -70 21 -30 41 -57 44 -60 4 -3 49 -61 100 -130 52 -69 100 -131
107 -138 7 -7 13 -17 13 -20 0 -4 10 -19 23 -32 34 -39 87 -108 87 -114 0 -3
8 -14 18 -24 9 -10 24 -29 32 -42 8 -13 22 -31 30 -39 8 -9 40 -50 70 -91 30
-41 59 -80 65 -86 5 -6 17 -22 25 -34 8 -12 22 -30 30 -40 35 -42 47 -58 89
-115 25 -33 48 -61 53 -63 4 -2 8 -9 8 -15 0 -7 14 -26 30 -44 17 -18 30 -36
30 -42 0 -5 3 -11 8 -13 4 -2 41 -48 82 -103 41 -55 77 -102 80 -105 3 -3 39
-50 80 -105 41 -55 77 -102 80 -105 3 -3 17 -21 30 -40 13 -19 27 -37 30 -40
3 -3 39 -50 79 -104 41 -55 80 -107 87 -115 7 -9 30 -39 51 -66 21 -28 79
-105 130 -172 l92 -121 925 0 c509 1 926 4 926 9 0 4 -26 41 -58 81 -32 40
-69 89 -82 108 -13 19 -30 39 -37 43 -7 4 -13 14 -13 22 0 7 -4 15 -9 17 -4 1
-39 44 -76 93 -59 78 -84 110 -123 160 -5 6 -57 75 -118 155 -60 80 -111 147
-114 150 -3 3 -27 34 -55 70 -27 36 -52 67 -55 70 -3 3 -17 21 -30 40 -13 19
-27 37 -30 40 -3 3 -52 67 -109 142 -57 76 -108 138 -113 138 -5 0 -7 4 -4 8
3 5 -5 19 -18 33 -12 13 -26 31 -32 40 -8 15 -26 38 -95 122 -14 18 -36 48
-49 67 -13 19 -32 42 -42 51 -10 9 -18 20 -18 25 0 5 -13 23 -28 40 -15 18
-34 42 -42 54 -8 12 -20 28 -25 34 -6 6 -47 58 -90 116 -44 57 -85 111 -92
120 -7 8 -32 42 -57 75 -25 33 -49 65 -54 71 -5 6 -31 39 -58 75 -27 35 -53
69 -59 75 -5 6 -21 27 -35 47 -14 20 -28 37 -32 37 -5 0 -8 5 -8 11 0 5 -13
24 -30 42 -16 18 -30 37 -30 44 0 6 -4 13 -8 15 -5 1 -32 35 -61 73 -30 39
-57 71 -62 73 -5 2 -9 10 -9 18 0 8 -4 14 -8 14 -4 0 -15 13 -25 29 -9 15 -32
46 -52 67 -19 21 -35 44 -35 51 0 6 -4 13 -8 15 -5 1 -27 28 -50 58 -23 30
-46 60 -50 65 -4 6 -52 69 -107 140 -113 147 -115 150 -132 170 -7 7 -13 18
-13 24 0 6 -4 11 -9 11 -5 0 -18 15 -30 33 -11 17 -28 41 -38 52 -10 11 -45
56 -78 100 -33 44 -63 82 -68 83 -4 2 -5 8 -1 13 3 5 1 9 -4 9 -5 0 -24 21
-43 48 -32 45 -43 59 -64 85 -6 7 -26 32 -45 57 -19 25 -38 47 -42 48 -5 2 -8
10 -8 17 0 8 -6 18 -13 22 -7 4 -37 42 -67 83 -30 41 -63 84 -73 95 -11 11
-29 36 -42 55 -12 19 -34 48 -49 63 -14 15 -26 31 -26 36 0 4 -8 16 -18 27
-35 38 -342 441 -342 449 0 6 45 63 120 155 16 19 48 60 71 90 24 30 48 60 54
66 5 6 17 22 25 34 8 12 20 28 25 34 6 6 44 54 85 106 41 52 79 100 85 106 5
6 17 22 25 34 8 13 22 30 30 39 9 9 33 40 55 69 22 28 43 52 47 52 4 0 8 5 8
10 0 6 30 47 68 93 37 46 78 98 92 117 14 18 40 52 58 74 46 57 51 62 107 136
28 35 57 73 67 85 36 44 84 104 108 135 14 18 40 51 58 74 18 22 40 51 50 63
9 13 26 33 37 46 11 13 47 59 80 102 33 42 80 103 105 134 25 32 59 75 75 96
17 21 35 43 40 49 6 6 24 29 40 51 17 22 32 42 35 45 3 3 23 28 45 55 22 28
43 52 47 53 5 2 8 8 8 14 0 5 6 15 13 22 6 7 23 28 37 46 14 18 32 41 41 51 8
10 24 30 35 44 10 15 24 32 29 39 6 6 60 74 120 151 60 77 117 149 126 160 10
11 56 70 103 130 47 61 89 115 94 120 4 6 38 48 75 95 37 47 73 92 80 100 7 8
28 35 47 60 19 25 39 50 45 57 14 18 26 32 64 83 19 25 39 50 46 55 6 6 22 26
35 45 13 19 27 37 30 40 3 3 46 57 95 120 50 63 94 120 100 126 5 6 21 26 35
44 31 41 71 91 87 108 7 7 13 16 13 20 0 4 15 23 33 43 17 20 43 51 57 69 14
19 35 46 48 61 12 15 22 30 22 33 0 3 -420 6 -934 6 l-934 0 -23 -31z"/>
</g>
</svg>
