<?xml version="1.0" encoding="UTF-8"?><svg id="Layer_2" xmlns="http://www.w3.org/2000/svg" viewBox="0 0 525.66 347.28"><defs><style>.cls-1{fill:#0c2735;}</style></defs><g id="Layer_1-2"><g><g><path class="cls-1" d="M0,294.12H9.52v53.15H0v-53.15Z"/><path class="cls-1" d="M37.24,294.12h8.28l7.38,10.34c3.77,5.25,12.06,17.06,12.06,17.06,0,0,8.29-11.73,11.98-16.98l7.38-10.42h8.29v53.15h-9.52v-36.91s-1.64,2.95-5.09,7.96l-13.04,18.7-13.21-18.87c-3.28-4.76-5-7.79-5-7.79v36.91h-9.52v-53.15Z"/><path class="cls-1" d="M139.54,294.12h9.02l23.95,53.15h-9.68l-4.18-9.19h-29.2l-4.18,9.19h-9.68l23.95-53.15Zm15.83,36.42l-6.07-13.78c-2.3-5.25-5.25-12.39-5.25-12.39,0,0-2.87,7.05-5.25,12.39l-6.07,13.78h22.64Z"/><path class="cls-1" d="M195.48,294.12h20.84c17.31,0,28.22,12.06,28.22,26.58s-10.91,26.58-28.22,26.58h-20.84v-53.15Zm20.42,44.95c11.24,0,18.7-7.79,18.7-18.37s-7.46-18.37-18.7-18.37h-10.91v36.75h10.91Z"/><path class="cls-1" d="M304.58,294.12h9.52v31.42s3.45-4.92,5.74-7.71l19.03-23.71h11.24l-19.6,24.85,21.66,28.3h-11.16l-16.49-21.74-10.42,12.55v9.19h-9.52v-53.15Z"/><path class="cls-1" d="M394.41,294.12h9.02l23.95,53.15h-9.68l-4.18-9.19h-29.2l-4.18,9.19h-9.68l23.95-53.15Zm15.83,36.42l-6.07-13.78c-2.3-5.25-5.25-12.39-5.25-12.39,0,0-2.87,7.05-5.25,12.39l-6.07,13.78h22.64Z"/><path class="cls-1" d="M447.32,340.06l26.41-32.07c3.04-3.77,5.09-5.66,5.09-5.66h-30.1v-8.2h41.92v7.3l-25.51,31.01c-3.28,3.94-5.82,6.64-5.82,6.64h32.15v8.2h-44.13v-7.22Z"/><path class="cls-1" d="M516.14,294.12h9.52v53.15h-9.52v-53.15Z"/></g><g><path class="cls-1" d="M226.92,0V4.74c-13.89,0-25.88,3.47-25.88,26.51V186.21c0,21.46,8.84,31.25,22.41,31.25v4.73h-82.69v-4.73c13.26,0,21.15-9.78,21.15-31.25V31.25c0-19.57-7.57-26.51-21.15-26.51V0h86.16Z"/><path class="cls-1" d="M294.51,103.75L376.35,0h-46.91l-79.44,98.96c-7.56,9.18-18.1,23.89-22.22,29.7v52.76l41.73-50.28,68.83,90.74h46.57l-90.4-118.13Z"/></g></g></g></svg>