<?xml version="1.0" encoding="UTF-8"?><svg id="Layer_2" xmlns="http://www.w3.org/2000/svg" viewBox="0 0 1293.38 180.3"><defs><style>.cls-1{fill:#0f172a;}</style></defs><g id="Layer_1-2"><g><g><path class="cls-1" d="M293.14,39.58h18.11v101.14h-18.11V39.58Z"/><path class="cls-1" d="M364.01,39.58h15.76l14.05,19.67c7.18,9.99,22.94,32.47,22.94,32.47,0,0,15.77-22.32,22.79-32.31l14.05-19.82h15.77v101.14h-18.11V70.49s-3.12,5.62-9.68,15.14l-24.82,35.59-25.13-35.9c-6.24-9.05-9.52-14.83-9.52-14.83v70.24h-18.11V39.58Z"/><path class="cls-1" d="M558.65,39.58h17.17l45.58,101.14h-18.42l-7.96-17.48h-55.57l-7.96,17.48h-18.42l45.58-101.14Zm30.12,69.3l-11.55-26.22c-4.37-9.99-9.99-23.57-9.99-23.57,0,0-5.46,13.42-9.99,23.57l-11.55,26.22h43.08Z"/><path class="cls-1" d="M665.11,39.58h39.65c32.93,0,53.69,22.94,53.69,50.57s-20.76,50.57-53.69,50.57h-39.65V39.58Zm38.86,85.54c21.38,0,35.59-14.83,35.59-34.96s-14.2-34.96-35.59-34.96h-20.76V125.12h20.76Z"/><path class="cls-1" d="M872.71,39.58h18.11v59.78s6.56-9.37,10.93-14.67l36.21-45.11h21.38l-37.3,47.29,41.21,53.85h-21.23l-31.37-41.36-19.82,23.88v17.48h-18.11V39.58Z"/><path class="cls-1" d="M1043.63,39.58h17.17l45.58,101.14h-18.42l-7.96-17.48h-55.57l-7.96,17.48h-18.42l45.58-101.14Zm30.13,69.3l-11.55-26.22c-4.37-9.99-9.99-23.57-9.99-23.57,0,0-5.46,13.42-9.99,23.57l-11.55,26.22h43.08Z"/><path class="cls-1" d="M1144.31,126.99l50.26-61.03c5.78-7.18,9.68-10.77,9.68-10.77h-57.28v-15.61h79.76v13.89l-48.54,59c-6.24,7.49-11.08,12.64-11.08,12.64h61.19v15.61h-83.97v-13.73Z"/><path class="cls-1" d="M1275.28,39.58h18.11v101.14h-18.11V39.58Z"/></g><g><path class="cls-1" d="M69.92,0V3.84c-11.27,0-21,2.82-21,21.51v125.75c0,17.42,7.17,25.35,18.18,25.35v3.84H0v-3.84c10.76,0,17.16-7.94,17.16-25.35V25.36C17.16,9.48,11.01,3.84,0,3.84V0H69.92Z"/><path class="cls-1" d="M124.77,84.19L191.17,0h-38.07L88.64,80.3c-6.14,7.45-14.69,19.39-18.03,24.1v42.81l33.87-40.8,55.85,73.63h37.79L124.77,84.19Z"/></g></g></g></svg>